<?xml version="1.0" encoding="UTF-8" standalone="no"?>
<svg
   xmlns:dc="http://purl.org/dc/elements/1.1/"
   xmlns:cc="http://creativecommons.org/ns#"
   xmlns:rdf="http://www.w3.org/1999/02/22-rdf-syntax-ns#"
   xmlns:svg="http://www.w3.org/2000/svg"
   xmlns="http://www.w3.org/2000/svg"
   xmlns:sodipodi="http://sodipodi.sourceforge.net/DTD/sodipodi-0.dtd"
   xmlns:inkscape="http://www.inkscape.org/namespaces/inkscape"
   width="23.394613mm"
   height="23.394613mm"
   viewBox="0 0 23.394613 23.394613"
   version="1.1"
   id="svg1171"
   inkscape:version="1.0.1 (3bc2e813f5, 2020-09-07)"
   sodipodi:docname="logo_only_image.svg">
  <defs
     id="defs1165" />
  <sodipodi:namedview
     id="base"
     pagecolor="#ffffff"
     bordercolor="#666666"
     borderopacity="1.0"
     inkscape:pageopacity="0.0"
     inkscape:pageshadow="2"
     inkscape:zoom="1.4"
     inkscape:cx="122.2775"
     inkscape:cy="30.995339"
     inkscape:document-units="mm"
     inkscape:current-layer="layer1"
     inkscape:document-rotation="0"
     showgrid="false"
     inkscape:window-width="1536"
     inkscape:window-height="864"
     inkscape:window-x="2128"
     inkscape:window-y="1"
     inkscape:window-maximized="0" />
  <metadata
     id="metadata1168">
    <rdf:RDF>
      <cc:Work
         rdf:about="">
        <dc:format>image/svg+xml</dc:format>
        <dc:type
           rdf:resource="http://purl.org/dc/dcmitype/StillImage" />
        <dc:title></dc:title>
      </cc:Work>
    </rdf:RDF>
  </metadata>
  <g
     inkscape:label="Layer 1"
     inkscape:groupmode="layer"
     id="layer1"
     transform="translate(-48.667903,-153.85627)">
    <g
       id="g912"
       transform="matrix(0.25856326,0,0,0.25856326,-94.507602,177.34817)">
      <circle
         style="fill:#ffaa4d;fill-opacity:1;stroke:#ffaa4d;stroke-width:0;stroke-miterlimit:4;stroke-dasharray:none;stroke-opacity:1"
         id="circle886"
         cx="598.97455"
         cy="-45.615902"
         r="45.239632" />
      <path
         id="path888"
         d="m 610.31006,-49.636664 h 7.78298 v 5.18867 h 5.18866 v 2.59431 h -7.78298 v -5.18864 h -2.59433 v 5.18864 h -23.34895 v -5.18864 h -10.37733 v -10.37733 h -2.59432 v 15.56597 h -5.18866 v -2.59431 h 2.59431 v -15.56599 h 7.78299 v 10.37732 h 10.37733 v 5.18867 h 18.1603 z m -11.8295,19.78955 h -2.28495 v -2.59433 h 2.28495 z m -10.83261,0.96509 h -16.25282 v -2.59432 h 20.13912 l -13.64292,23.3489495 h -2.64492 z m 31.78247,20.7546295 h -2.64491 L 603.14258,-31.476344 h 20.13912 v 2.59432 H 607.02888 Z M 598.48056,-22.064134 h -2.28495 v -5.18865 h 2.28495 z"
         inkscape:connector-curvature="0"
         style="fill:#000000;fill-rule:evenodd;stroke-width:0.259433" />
      <path
         id="path890"
         d="m 615.48173,-69.410224 c 0.49426,-0.79399 1.36797,-1.32702 2.372,-1.32702 1.54663,0 2.80055,1.25393 2.80164,2.80093 0,1.54663 -1.2539,2.80053 -2.80054,2.80053 -1.54662,0 -2.80055,-1.2539 -2.80055,-2.80053 0,-0.0207 0.005,-0.0395 0.005,-0.0601 l -4.22536,-1.07672 0.21189,2.84041 c 0.46177,0.23881 0.78106,0.71572 0.78106,1.27163 0,0.7936 -0.64339,1.43701 -1.43699,1.43701 -0.79363,0 -1.43703,-0.64341 -1.43703,-1.43701 0,-0.49059 0.24695,-0.92282 0.62198,-1.18193 l -0.24694,-3.31402 -1.43883,-0.36652 c -0.62678,1.42002 -1.94382,2.46279 -3.52624,2.71011 l 0.45216,6.80775 c 0.0823,0.0124 0.16388,0.0124 0.24658,0.031 1.5075,0.34662 2.4484,1.84971 2.10179,3.35683 -0.34661,1.50752 -1.84967,2.44841 -3.35683,2.10179 -1.50749,-0.34659 -2.4484,-1.84967 -2.10178,-3.3568 0.20966,-0.91137 0.84492,-1.60939 1.64518,-1.94714 l -0.25912,-3.90276 -2.9349,1.19597 c -0.005,0.0329 -0.005,0.0652 -0.0124,0.0983 -0.17755,0.77367 -0.94902,1.25649 -1.72235,1.07855 -0.77368,-0.17754 -1.2565,-0.949 -1.07858,-1.72231 0.17755,-0.77369 0.94903,-1.25651 1.72234,-1.07859 0.20412,0.0468 0.3861,0.13695 0.54298,0.25581 l 3.37972,-1.3772 -0.10271,-1.54662 c -1.28862,-0.21152 -2.39968,-0.94829 -3.09917,-1.98922 l -6.75976,3.22429 c 9.8e-4,0.15277 -0.003,0.30637 -0.0266,0.46251 -0.2429,1.52744 -1.67805,2.56874 -3.20548,2.32586 -1.52743,-0.24287 -2.56873,-1.67805 -2.32585,-3.20548 0.24288,-1.52743 1.67805,-2.56873 3.20546,-2.32585 0.84051,0.13362 1.52376,0.63491 1.93681,1.30782 l 6.56229,-3.1302 c -0.11068,-0.39679 -0.17423,-0.81355 -0.17423,-1.24579 0,-0.95971 0.29125,-1.85151 0.7903,-2.59163 l -2.27455,-2.6023 -5.31501,1.1033 c -0.005,0.0153 -0.005,0.0302 -0.011,0.045 -0.275,0.74452 -1.10147,1.12471 -1.84599,0.84973 -0.74452,-0.275 -1.12472,-1.10146 -0.84972,-1.84601 0.27499,-0.74451 1.10147,-1.12471 1.84598,-0.84972 0.2141,0.0791 0.3935,0.20744 0.5404,0.36248 l 4.52215,-0.93867 -1.38348,-1.58281 c -0.45476,0.23699 -0.97671,0.35806 -1.5256,0.31154 -1.54108,-0.13059 -2.68463,-1.48572 -2.55396,-3.02681 0.13073,-1.54109 1.48573,-2.68463 3.02681,-2.55397 1.5411,0.13058 2.68466,1.48571 2.55397,3.02681 -0.0386,0.45735 -0.19525,0.87262 -0.42264,1.23694 l 2.72708,3.12021 0.98445,-2.66029 c -0.25764,-0.31744 -0.38388,-0.73824 -0.3012,-1.17122 0.14841,-0.7796 0.90104,-1.2912 1.68063,-1.14245 0.77959,0.14836 1.2912,0.90103 1.14245,1.68062 -0.11331,0.59431 -0.57844,1.0306 -1.13803,1.13948 l -1.2646,3.41664 0.87704,1.00364 c 0.78511,-0.60794 1.76736,-0.9734 2.83709,-0.9734 0.74857,0 1.45323,0.18125 2.07963,0.49612 l 3.37121,-5.82219 c -0.61717,-0.60389 -0.9538,-1.47834 -0.82093,-2.39857 0.22112,-1.53075 1.64113,-2.59236 3.17188,-2.37124 1.53113,0.2211 2.59273,1.64112 2.37164,3.17188 -0.22111,1.53074 -1.64114,2.59235 -3.17189,2.37123 -0.0897,-0.0139 -0.17165,-0.0431 -0.25801,-0.0643 l -1.56361,2.69979 2.78428,0.89032 c 0.30565,-0.27167 0.72017,-0.41675 1.15647,-0.35363 0.7855,0.11373 1.33034,0.84235 1.21701,1.62784 -0.11374,0.7855 -0.84234,1.33034 -1.62783,1.21699 -0.59872,-0.0863 -1.05533,-0.53116 -1.18932,-1.08559 l -3.09622,-0.98999 -1.14133,1.97113 c 0.84013,0.84014 1.35985,2.00103 1.35985,3.283 0,0.15022 -0.008,0.29861 -0.0225,0.44515 z"
         inkscape:connector-curvature="0"
         style="fill:#000000;fill-rule:evenodd;stroke-width:0.166108" />
    </g>
  </g>
</svg>
