<svg xmlns="http://www.w3.org/2000/svg" width="593" height="203" viewBox="0 0 593 203" version="1.1"><path d="M 314.500 60.627 C 283.447 64.010, 261.111 77.187, 253.803 96.435 C 251.882 101.494, 251.500 104.416, 251.500 114.053 C 251.500 125.392, 251.570 125.748, 255.256 133.205 C 259.664 142.123, 267.016 149.761, 276.282 155.050 C 285.052 160.056, 289.445 161.643, 301.195 164.052 C 327.261 169.396, 356.542 166.700, 375.976 157.167 C 385.534 152.478, 397.447 141.044, 401.206 132.951 C 406.754 121.008, 406.794 104.365, 401.303 93 C 394.202 78.301, 374.892 66.046, 352.500 62.025 C 345.956 60.849, 320.914 59.929, 314.500 60.627 M 189.713 113.230 L 189.927 164.500 210.194 164.500 L 230.461 164.500 229.980 160 C 229.344 154.043, 229.359 71.633, 229.997 66.500 L 230.494 62.500 209.997 62.230 L 189.500 61.961 189.713 113.230 M 426.500 113.500 L 426.500 165 445 164.985 C 455.175 164.976, 463.950 164.639, 464.500 164.235 C 465.153 163.755, 465.280 152.750, 464.866 132.500 C 464.518 115.450, 464.370 101.347, 464.538 101.161 C 464.707 100.975, 466.407 102.550, 468.316 104.661 C 470.226 106.772, 476.615 113.225, 482.515 119 C 488.415 124.775, 501.290 137.473, 511.126 147.218 L 529.009 164.936 548.754 164.912 L 568.500 164.887 568.500 113.443 L 568.500 62 548.633 62 L 528.767 62 529.486 64.250 C 530.275 66.718, 531.770 124.904, 531.062 125.607 C 530.821 125.847, 523.621 119.183, 515.062 110.798 C 506.503 102.414, 492.601 88.791, 484.168 80.527 C 475.736 72.262, 468.407 64.713, 467.883 63.750 C 467.024 62.172, 464.937 62, 446.715 62 L 426.500 62 426.500 113.500 M 314.773 82.480 C 303.686 85.532, 294.465 93.339, 291.985 101.775 C 286.466 120.546, 294.451 137.611, 311.500 143.481 C 322.160 147.151, 340.032 146.421, 349 141.951 C 363.864 134.540, 370.210 114.608, 362.705 98.906 C 359.469 92.134, 357.618 90.033, 351.986 86.732 C 342.781 81.339, 325.918 79.412, 314.773 82.480 M 548.750 166.772 C 547.212 167.101, 547 168.480, 547 178.150 L 547 189.153 550.750 188.932 C 552.813 188.811, 556.158 189.046, 558.185 189.455 C 568.440 191.523, 575.886 182.561, 569.750 175.535 C 567.333 172.767, 561.984 171.839, 556.750 173.281 C 554.140 173.999, 554 173.864, 554 170.636 C 554 167.117, 552.452 165.978, 548.750 166.772 M 495 178 L 495 189 506 189 C 516.333 189, 517 188.879, 517 187 C 517 185.178, 516.333 185, 509.500 185 L 502 185 502 176 L 502 167 498.500 167 L 495 167 495 178 M 143.649 171.233 C 143.010 173.677, 144.367 175.833, 145.446 174.087 C 145.816 173.489, 145.684 173, 145.153 173 C 144.622 173, 144.423 172.100, 144.710 171 C 144.998 169.900, 145.008 169, 144.733 169 C 144.458 169, 143.971 170.005, 143.649 171.233 M 525.500 173.490 C 523.300 174.304, 521.388 174.977, 521.250 174.985 C 521.112 174.993, 521 175.399, 521 175.887 C 521 177.124, 526.755 177.845, 527.855 176.745 C 529.114 175.486, 534.259 176.235, 534.756 177.750 C 535.029 178.581, 534.050 179.002, 531.833 179.006 C 522.782 179.021, 517.088 183.309, 520.879 187.255 C 522.674 189.123, 525.743 189.525, 535.750 189.202 L 542 189 542 183.111 C 542 178.952, 541.486 176.618, 540.250 175.167 C 537.881 172.384, 530.694 171.567, 525.500 173.490 M 145 175.435 C 142.714 176.802, 142.675 176.932, 144.550 176.965 C 145.678 176.984, 147.206 176.438, 147.947 175.750 C 148.981 174.790, 149.132 174.786, 148.599 175.732 C 148.053 176.701, 160.328 176.974, 206.202 177.011 C 238.266 177.038, 305.197 177.280, 354.938 177.551 C 404.679 177.822, 445.142 177.809, 444.857 177.524 C 443.712 176.378, 401.690 175.627, 330 175.470 C 288.475 175.379, 230.425 174.997, 201 174.622 C 154.485 174.030, 147.174 174.136, 145 175.435 M 446.367 176.783 C 446.610 177.178, 450.790 177.651, 455.655 177.836 C 460.520 178.022, 464.212 177.883, 463.859 177.529 C 462.967 176.632, 445.821 175.901, 446.367 176.783 M 555.655 177.829 C 552.406 181.419, 554.770 186, 559.871 186 C 563.346 186, 565 184.335, 565 180.835 C 565 176.262, 558.861 174.287, 555.655 177.829 M 527.601 183.303 C 526.066 184.425, 526.019 184.771, 527.262 185.802 C 529.090 187.319, 535 185.486, 535 183.402 C 535 181.605, 530.014 181.538, 527.601 183.303" stroke="none" fill="#090606" fill-rule="evenodd"/><path d="M 86 14.619 C 80.574 15.629, 70.619 18.212, 69.102 19.003 C 68.221 19.463, 64.575 21.292, 61 23.068 C 57.425 24.844, 52.475 27.835, 50 29.715 C 27.531 46.777, 15.901 69.495, 15.927 96.268 C 15.946 116.753, 20.136 129.404, 32.721 146.985 C 35.808 151.297, 46.366 161.557, 49.750 163.533 C 51.538 164.577, 53 165.710, 53 166.050 C 53 167.369, 70.928 175.029, 79 177.159 C 85.691 178.924, 90.160 179.393, 100 179.366 C 113.673 179.327, 121.228 177.855, 133.303 172.875 C 137.138 171.294, 140.663 170, 141.138 170 C 141.612 170, 142 171.727, 142 173.839 L 142 177.677 193.250 178.347 C 221.438 178.715, 279.600 179.117, 322.500 179.241 C 447.752 179.603, 465 179.857, 465 181.340 C 465 183.453, 470.346 187.919, 473.670 188.584 C 480.279 189.906, 487 184.065, 487 177 C 487 169.960, 482.737 166, 475.157 166 C 470.730 166, 467.563 168.010, 465.399 172.195 L 463.809 175.269 432.155 174.647 C 414.745 174.304, 369.675 173.992, 332 173.953 C 294.325 173.914, 237.288 173.614, 205.250 173.287 L 147 172.691 147 169.962 C 147 168.117, 146.381 167.071, 145.090 166.734 C 143.461 166.308, 143.182 165.297, 143.189 159.867 C 143.201 150.351, 143.136 150, 141.346 150 C 140.437 150, 138.074 148.312, 136.096 146.250 L 132.500 142.500 120.250 142.809 C 109.247 143.086, 108 143.300, 108 144.913 C 108 145.900, 106.896 147.899, 105.548 149.354 C 101.325 153.910, 94.936 152.484, 92.402 146.420 L 90.973 143 78.555 143 L 66.136 143 64.025 145.965 C 58.188 154.163, 45 149.945, 45 139.880 C 45 137.456, 45.966 135.771, 49.023 132.864 C 52.850 129.222, 53.070 128.684, 53.556 121.768 C 53.837 117.771, 53.785 112.364, 53.440 109.754 C 52.876 105.479, 52.503 104.928, 49.679 104.197 C 45.300 103.062, 42.629 98.364, 44.048 94.292 C 45.040 91.446, 48.455 89, 51.436 89 C 53.258 89, 54.054 84.030, 53.906 73.560 C 53.800 65.985, 53.503 64.571, 51.717 63.147 C 46.172 58.727, 45 57.034, 45 53.445 C 45 50.607, 45.781 49.019, 48.528 46.272 C 51.736 43.064, 52.439 42.795, 56.278 43.300 C 59.642 43.743, 61.235 44.705, 64.115 48.030 L 67.730 52.204 79.590 51.772 L 91.451 51.340 92.110 48.114 C 93.813 39.791, 105.627 39.927, 107.797 48.295 L 108.628 51.500 120.860 51.611 L 133.092 51.722 134.495 49.010 C 137.829 42.563, 145.692 41.041, 150.837 45.848 C 156.512 51.149, 155.881 58.056, 149.352 62.091 L 145.940 64.200 146.220 76.280 L 146.500 88.359 149.357 89.122 C 153.716 90.285, 156 92.875, 156 96.655 C 156 100.384, 153.107 104, 150.122 104 C 146.754 104, 146.114 106.229, 146.184 117.716 L 146.251 128.867 150.083 131.946 C 156.704 137.267, 156.143 145.122, 148.833 149.440 C 146.063 151.076, 145.947 151.432, 146.177 157.645 C 146.309 161.217, 146.790 164.370, 147.246 164.652 C 148.077 165.165, 161.976 154.336, 162.027 153.137 C 162.041 152.786, 163.847 150.475, 166.039 148 C 171.523 141.808, 171.096 142.470, 175.722 133 C 180.872 122.460, 182.736 115.986, 183.876 104.685 C 185.868 84.923, 180.301 64.414, 168.514 48.096 C 164.889 43.077, 151.722 30.653, 147.066 27.859 C 144.005 26.022, 141.350 24.177, 141.167 23.759 C 140.983 23.342, 140.478 23, 140.044 23 C 139.610 23, 137.060 22.012, 134.377 20.805 C 131.695 19.597, 129.050 18.526, 128.500 18.424 C 127.950 18.322, 125.025 17.459, 122 16.507 C 116.598 14.806, 91.940 13.513, 86 14.619 M 65.049 57.881 C 64.373 59.514, 62.262 61.572, 60.178 62.631 C 58.155 63.659, 56.165 64.950, 55.755 65.500 C 54.880 66.673, 54.993 85.729, 55.888 88.165 C 56.370 89.478, 58.511 87.931, 66 80.857 C 71.225 75.922, 79.213 68.462, 83.750 64.280 C 88.287 60.097, 92 56.299, 92 55.838 C 92 55.377, 86.205 55, 79.121 55 L 66.243 55 65.049 57.881 M 107.792 55.542 C 107.298 56.035, 116.432 65.155, 135.750 83.459 L 143 90.328 143.164 85.914 C 143.255 83.486, 143.466 78.575, 143.633 75 C 143.999 67.173, 143.417 64, 141.616 64 C 139.556 64, 134.960 60.024, 133.950 57.369 C 133.070 55.053, 132.771 55, 120.691 55 C 113.894 55, 108.090 55.244, 107.792 55.542 M 87.743 63.500 C 84.275 66.800, 76.334 74.389, 70.096 80.365 L 58.754 91.231 58.514 96.630 L 58.274 102.029 66.387 109.839 C 70.849 114.134, 78.708 121.665, 83.852 126.574 L 93.204 135.500 99.426 135.589 L 105.648 135.679 113.236 128.589 C 117.410 124.690, 125.270 117.307, 130.703 112.182 L 140.581 102.863 140.506 97.112 L 140.431 91.361 127.966 79.347 C 104.409 56.642, 105.751 57.670, 99.532 57.579 C 94.159 57.502, 93.921 57.621, 87.743 63.500 M 309.349 60.055 C 291.858 62.335, 273.691 69.866, 264.657 78.580 C 258.066 84.938, 252.997 93.711, 251.061 102.112 C 249.950 106.929, 249.821 120.155, 250.850 123.814 C 251.207 125.087, 251.500 120.812, 251.500 114.314 C 251.500 104.405, 251.871 101.522, 253.803 96.435 C 260.065 79.940, 278.434 67.156, 302.831 62.313 C 313.243 60.246, 341.969 59.989, 352 61.873 C 375.210 66.233, 394.147 78.188, 401.303 93 C 406.799 104.376, 406.754 121.039, 401.194 132.951 C 397.905 139.996, 386.344 151.784, 379.151 155.426 C 376.208 156.916, 374.058 158.392, 374.373 158.706 C 374.687 159.021, 377.483 157.753, 380.585 155.889 C 400.426 143.969, 409.666 125.509, 406.059 105 C 401.922 81.486, 381.336 65.293, 349.500 60.513 C 338.950 58.929, 319.675 58.709, 309.349 60.055 M 209.498 61.959 L 230.495 62.500 229.998 66.500 C 229.360 71.627, 229.344 154.036, 229.980 160 L 230.459 164.500 209.729 164.500 C 198.328 164.500, 188.999 164.846, 188.999 165.270 C 189 165.693, 198.563 165.918, 210.250 165.770 L 231.500 165.500 231 156 C 230.725 150.775, 230.500 130.525, 230.500 111 C 230.500 91.475, 230.725 72.350, 231 68.500 L 231.500 61.500 210 61.459 L 188.500 61.418 209.498 61.959 M 425.136 63.750 C 425.253 66.108, 425.334 66.179, 425.706 64.250 C 426.138 62.004, 426.179 62, 446.534 62 C 464.929 62, 467.023 62.172, 467.883 63.750 C 468.407 64.713, 475.736 72.262, 484.168 80.527 C 492.601 88.791, 506.587 102.498, 515.250 110.985 C 523.913 119.472, 531.014 125.985, 531.032 125.458 C 531.324 116.777, 530.590 74.056, 530.079 70 C 529.698 66.975, 529.591 77.838, 529.841 94.139 L 530.295 123.778 516.281 110.139 C 508.574 102.638, 495.672 90.200, 487.610 82.500 C 479.548 74.800, 471.777 66.813, 470.340 64.750 L 467.728 61 446.364 61 L 425 61 425.136 63.750 M 528.459 62.067 C 528.096 62.653, 528.070 63.403, 528.400 63.733 C 528.730 64.063, 529 63.808, 529 63.167 C 529 62.317, 534.369 62, 548.750 62 L 568.500 62 568.500 113.443 L 568.500 164.887 548.754 164.912 L 529.009 164.936 511.108 147.218 C 501.262 137.473, 487.085 123.450, 479.603 116.056 C 472.121 108.662, 466 102.249, 466 101.806 C 466 101.363, 465.550 101, 465 101 C 464.416 101, 464.068 103.808, 464.163 107.750 L 464.326 114.500 464.913 109.275 L 465.500 104.050 496.972 135.025 L 528.445 166 537.222 166 L 546 166 546 178 C 546 189.768, 546.044 190.001, 548.250 190.034 C 549.487 190.052, 553.200 190.254, 556.500 190.483 C 564.893 191.063, 569.831 189.423, 571.739 185.421 C 573.712 181.283, 572.725 175.458, 569.784 173.884 L 567.654 172.744 569.827 175.507 C 575.646 182.905, 568.451 191.525, 558.185 189.455 C 556.158 189.046, 552.813 188.811, 550.750 188.932 L 547 189.153 547 178.150 C 547 166.209, 547.484 165.295, 552.807 167.178 C 554.281 167.699, 554.892 167.634, 554.498 166.997 C 554.109 166.367, 556.755 166, 561.691 166 L 569.500 166 569.500 113.500 L 569.500 61 549.309 61 C 536.087 61, 528.891 61.368, 528.459 62.067 M 426.461 114 C 426.461 139.025, 426.590 149.263, 426.749 136.750 C 426.908 124.238, 426.908 103.763, 426.749 91.250 C 426.590 78.738, 426.461 88.975, 426.461 114 M 317.190 81.850 C 315.919 82.207, 320.419 82.500, 327.190 82.500 C 340.286 82.500, 345.729 83.783, 352.808 88.540 C 356.850 91.257, 361.560 97.506, 363.451 102.662 C 364.226 104.773, 364.886 105.825, 364.920 105 C 364.999 103.041, 360.622 94.080, 358.292 91.430 C 355.412 88.156, 348.024 84.240, 341.540 82.552 C 335.617 81.010, 321.609 80.606, 317.190 81.850 M 306.061 86.034 C 303.070 87.683, 299.761 89.812, 298.708 90.765 C 295.840 93.360, 292.269 100.043, 291.637 104 C 291.186 106.820, 291.366 106.598, 292.566 102.860 C 294.634 96.414, 300.850 89.731, 308.189 86.064 C 311.561 84.379, 313.685 83.008, 312.910 83.018 C 312.134 83.028, 309.053 84.385, 306.061 86.034 M 55.686 105.375 C 55.228 106.570, 55.366 120.660, 55.905 127.750 C 55.957 128.438, 56.640 129, 57.423 129 C 59.667 129, 64.718 133.741, 65.410 136.497 L 66.038 139 79.019 139 C 86.159 139, 92 138.649, 92 138.221 C 92 137.792, 89.412 135.038, 86.250 132.100 C 83.088 129.162, 76.888 123.325, 72.473 119.129 C 56.136 103.601, 56.312 103.746, 55.686 105.375 M 136.992 109.248 C 122.368 122.743, 107.194 137.861, 107.732 138.399 C 108.063 138.730, 113.846 139, 120.584 139 L 132.835 139 134.668 135.250 C 135.846 132.839, 137.858 130.837, 140.302 129.643 L 144.104 127.786 143.894 116.354 C 143.779 110.067, 143.414 104.756, 143.084 104.552 C 142.753 104.348, 140.012 106.461, 136.992 109.248 M 365.179 112.500 C 365.066 115.800, 364.741 119.625, 364.458 121 L 363.944 123.500 365.014 121.048 C 365.603 119.700, 365.928 115.875, 365.735 112.548 L 365.385 106.500 365.179 112.500 M 290.136 112.568 C 289.859 122.895, 294.955 133.479, 302.972 139.229 C 316.217 148.728, 344.169 147.989, 355.018 137.853 C 358.668 134.443, 363.373 128.039, 362.713 127.380 C 362.402 127.069, 361.479 128.093, 360.663 129.657 C 355.462 139.618, 340.301 145.959, 324.698 144.700 C 304.104 143.039, 292.967 133.109, 291.027 114.678 C 290.334 108.097, 290.260 107.921, 290.136 112.568 M 465.415 140.740 C 465.483 159.232, 465.228 164.084, 464.168 164.490 C 463.436 164.771, 454.580 165, 444.488 165 C 426.269 165, 426.136 164.984, 425.656 162.750 C 425.230 160.767, 425.192 160.797, 425.336 163 L 425.500 165.500 445.428 165.772 C 456.389 165.921, 465.629 165.696, 465.961 165.272 C 466.294 164.847, 466.288 153.925, 465.948 141 L 465.329 117.500 465.415 140.740 M 253.264 131.750 C 253.353 132.988, 253.731 134, 254.104 134 C 254.478 134, 255.048 135.054, 255.371 136.342 C 256.041 139.011, 268.893 153.011, 270.667 153.004 C 271.308 153.002, 271.983 153.338, 272.167 153.750 C 272.833 155.250, 284.695 160.829, 292.518 163.323 C 306.577 167.805, 329.341 169.323, 346.566 166.928 C 355.398 165.699, 371.017 161.401, 372.500 159.791 C 373.208 159.022, 372.916 158.938, 371.500 159.502 C 365.878 161.741, 351.365 165.036, 342.500 166.087 C 325.604 168.088, 299.497 165.367, 286.695 160.269 C 273.454 154.997, 261.602 145.291, 256.238 135.327 C 254.297 131.720, 253.164 130.357, 253.264 131.750 M 494.219 178.057 L 494.500 190.115 505.861 190.186 C 513.805 190.236, 517.450 189.890, 517.979 189.034 C 518.562 188.090, 519.410 188.160, 521.693 189.341 C 523.894 190.479, 526.811 190.764, 533.076 190.453 C 537.709 190.223, 541.837 190.027, 542.250 190.017 C 544.230 189.972, 542.776 176.013, 540.500 173.219 C 539.747 172.294, 534 171.278, 534 172.070 C 534 172.581, 535.099 173, 536.443 173 C 540.092 173, 542 176.510, 542 183.223 L 542 189 535.750 189.202 C 525.743 189.525, 522.674 189.123, 520.879 187.255 C 517.088 183.309, 522.782 179.021, 531.833 179.006 C 534.050 179.002, 535.029 178.581, 534.756 177.750 C 534.259 176.235, 529.114 175.486, 527.855 176.745 C 526.755 177.845, 521 177.124, 521 175.887 C 521 175.399, 521.112 174.993, 521.250 174.985 C 521.388 174.977, 523.300 174.281, 525.500 173.439 C 529.436 171.933, 529.446 171.917, 526.095 172.460 C 520.062 173.438, 517.311 177.996, 522.750 178.004 L 525.500 178.007 522.250 179.989 C 520.462 181.079, 519 182.427, 519 182.985 C 519 183.587, 515.744 184, 511 184 L 503 184 503 175 L 503 166 498.469 166 L 493.938 166 494.219 178.057 M 495 178 L 495 189 506 189 C 516.333 189, 517 188.879, 517 187 C 517 185.178, 516.333 185, 509.500 185 L 502 185 502 176 L 502 167 498.500 167 L 495 167 495 178 M 143.649 171.233 C 143.010 173.677, 144.367 175.833, 145.446 174.087 C 145.816 173.489, 145.684 173, 145.153 173 C 144.622 173, 144.423 172.100, 144.710 171 C 144.998 169.900, 145.008 169, 144.733 169 C 144.458 169, 143.971 170.005, 143.649 171.233 M 555 173.046 C 553.905 173.787, 554.309 173.880, 556.500 173.390 C 560.177 172.567, 560.975 171.995, 558.417 172.015 C 557.362 172.024, 555.825 172.487, 555 173.046 M 145 175.435 C 142.714 176.802, 142.675 176.932, 144.550 176.965 C 145.678 176.984, 147.206 176.438, 147.947 175.750 C 148.981 174.790, 149.132 174.786, 148.599 175.732 C 148.053 176.701, 160.328 176.974, 206.202 177.011 C 238.266 177.038, 305.197 177.280, 354.938 177.551 C 404.679 177.822, 445.142 177.809, 444.857 177.524 C 443.712 176.378, 401.690 175.627, 330 175.470 C 288.475 175.379, 230.425 174.997, 201 174.622 C 154.485 174.030, 147.174 174.136, 145 175.435 M 446.367 176.783 C 446.610 177.178, 450.790 177.651, 455.655 177.836 C 460.520 178.022, 464.212 177.883, 463.859 177.529 C 462.967 176.632, 445.821 175.901, 446.367 176.783 M 555.655 177.829 C 552.406 181.419, 554.770 186, 559.871 186 C 563.346 186, 565 184.335, 565 180.835 C 565 176.262, 558.861 174.287, 555.655 177.829 M 556.571 178.571 C 554.283 180.860, 554.643 182.880, 557.578 184.217 C 561.920 186.196, 565.873 181.962, 562.960 178.452 C 561.383 176.551, 558.538 176.605, 556.571 178.571 M 527.601 183.303 C 526.066 184.425, 526.019 184.771, 527.262 185.802 C 529.090 187.319, 535 185.486, 535 183.402 C 535 181.605, 530.014 181.538, 527.601 183.303 M 529.500 184 C 527.714 184.767, 527.788 184.867, 530.191 184.930 C 531.671 184.968, 533.160 184.550, 533.500 184 C 534.238 182.806, 532.278 182.806, 529.500 184" stroke="none" fill="#7f2625" fill-rule="evenodd"/></svg>