<svg xmlns="http://www.w3.org/2000/svg" width="593" height="203" viewBox="0 0 593 203" version="1.1"><path d="M 314.500 60.627 L 310.500 61.063 302.331 62.549 L 294.161 64.034 286.331 67.163 L 278.500 70.291 271.571 74.896 L 264.642 79.500 260.374 84.935 L 256.106 90.370 253.803 96.435 L 251.500 102.500 251.500 114.053 L 251.500 125.607 255.256 133.205 L 259.012 140.804 264.538 146.152 L 270.063 151.500 276.282 155.050 L 282.500 158.599 286.695 160.269 L 290.890 161.940 301.195 164.052 L 311.500 166.165 322.500 166.703 L 333.500 167.241 342.642 166.113 L 351.784 164.985 360.142 162.910 L 368.500 160.834 375.976 157.167 L 383.451 153.500 391.040 146 L 398.629 138.500 401.206 132.951 L 403.783 127.403 404.894 120.244 L 406.005 113.085 404.983 105.793 L 403.961 98.500 401.303 93 L 398.646 87.500 392.073 80.963 L 385.500 74.426 378.500 70.837 L 371.500 67.248 365 65.175 L 358.500 63.102 352.500 62.025 L 346.500 60.947 332.500 60.569 L 318.500 60.192 314.500 60.627 M 189.713 113.230 L 189.927 164.500 210.194 164.500 L 230.461 164.500 229.980 160 L 229.500 155.500 229.500 113 L 229.500 70.500 229.997 66.500 L 230.494 62.500 209.997 62.230 L 189.500 61.961 189.713 113.230 M 426.500 113.500 L 426.500 165 445 164.985 L 463.500 164.969 464.500 164.235 L 465.500 163.500 464.866 132.500 L 464.232 101.500 464.538 101.161 L 464.845 100.822 468.316 104.661 L 471.788 108.500 482.515 119 L 493.242 129.500 511.126 147.218 L 529.009 164.936 548.754 164.912 L 568.500 164.887 568.500 113.443 L 568.500 62 548.633 62 L 528.767 62 529.486 64.250 L 530.206 66.500 530.853 95.836 L 531.500 125.172 531.062 125.607 L 530.624 126.043 515.062 110.798 L 499.500 95.553 484.168 80.527 L 468.836 65.500 467.883 63.750 L 466.930 62 446.715 62 L 426.500 62 426.500 113.500 M 314.773 82.480 L 310.046 83.781 304.773 86.743 L 299.500 89.705 296.290 93.878 L 293.080 98.051 291.985 101.775 L 290.890 105.500 290.322 111.072 L 289.755 116.644 291.468 122.572 L 293.181 128.500 296.312 132.599 L 299.444 136.698 302.972 139.229 L 306.500 141.759 311.500 143.481 L 316.500 145.202 324.734 145.741 L 332.969 146.280 339.234 144.988 L 345.500 143.695 349 141.951 L 352.500 140.206 355.018 137.853 L 357.537 135.500 360.143 132 L 362.749 128.500 364.499 123.116 L 366.250 117.732 365.769 111.022 L 365.289 104.312 362.705 98.906 L 360.122 93.500 358.296 91.430 L 356.471 89.361 351.986 86.732 L 347.500 84.104 341.540 82.552 L 335.580 81 327.540 81.089 L 319.500 81.179 314.773 82.480 M 548.750 166.772 L 547 167.147 547 178.150 L 547 189.153 550.750 188.932 L 554.500 188.712 558.185 189.455 L 561.870 190.198 565.432 189.023 L 568.994 187.847 570.497 185.701 L 572 183.555 572 180.833 L 572 178.112 569.750 175.535 L 567.500 172.958 563.500 172.741 L 559.500 172.523 556.750 173.281 L 554 174.038 554 170.636 L 554 167.233 552.250 166.815 L 550.500 166.396 548.750 166.772 M 495 178 L 495 189 506 189 L 517 189 517 187 L 517 185 509.500 185 L 502 185 502 176 L 502 167 498.500 167 L 495 167 495 178 M 143.649 171.233 L 143.066 173.466 143.920 174.320 L 144.774 175.174 145.446 174.087 L 146.118 173 145.153 173 L 144.187 173 144.710 171 L 145.233 169 144.733 169 L 144.233 169 143.649 171.233 M 525.500 173.490 L 521.500 174.970 521.250 174.985 L 521 175 521 175.887 L 521 176.773 523.977 177.210 L 526.953 177.647 527.855 176.745 L 528.756 175.844 531.551 176.172 L 534.346 176.500 534.756 177.750 L 535.167 179 531.833 179.006 L 528.500 179.011 524.695 180.068 L 520.889 181.125 520.041 183.312 L 519.193 185.500 520.879 187.255 L 522.565 189.009 526.032 189.207 L 529.500 189.404 535.750 189.202 L 542 189 542 183.111 L 542 177.222 540.250 175.167 L 538.500 173.112 534 172.560 L 529.500 172.009 525.500 173.490 M 145 175.435 L 142.500 176.929 144.550 176.965 L 146.600 177 147.947 175.750 L 149.293 174.500 148.599 175.732 L 147.905 176.963 206.202 177.011 L 264.500 177.059 354.938 177.551 L 445.376 178.043 444.857 177.524 L 444.337 177.004 424.919 176.320 L 405.500 175.635 330 175.470 L 254.500 175.304 201 174.622 L 147.500 173.941 145 175.435 M 485 175.500 L 485 176 485.500 176 L 486 176 486 175.500 L 486 175 485.500 175 L 485 175 485 175.500 M 446.367 176.783 L 446.810 177.500 455.655 177.836 L 464.500 178.173 463.859 177.529 L 463.219 176.886 454.571 176.476 L 445.923 176.067 446.367 176.783 M 555.655 177.829 L 554 179.657 554 181.257 L 554 182.857 555.571 184.429 L 557.143 186 559.871 186 L 562.600 186 563.800 184.800 L 565 183.600 565 180.835 L 565 178.070 563.066 177.035 L 561.131 176 559.221 176 L 557.310 176 555.655 177.829 M 527.601 183.303 L 525.819 184.605 527.262 185.802 L 528.704 186.999 531.852 185.902 L 535 184.804 535 183.402 L 535 182 532.191 182 L 529.382 182 527.601 183.303" stroke="none" fill="#ffffff" fill-rule="evenodd"/><path d="M 86 14.619 L 83.500 15.084 77.102 16.626 L 70.705 18.167 69.102 19.003 L 67.500 19.839 61 23.068 L 54.500 26.297 50 29.715 L 45.500 33.132 40.174 38.243 L 34.849 43.354 30.405 49.581 L 25.962 55.807 22.953 62.444 L 19.943 69.081 17.930 77.558 L 15.917 86.035 15.927 96.268 L 15.936 106.500 16.980 112 L 18.023 117.500 20.575 125.192 L 23.126 132.885 27.034 138.692 L 30.942 144.500 32.721 146.985 L 34.500 149.470 40.500 155.553 L 46.500 161.635 49.750 163.533 L 53 165.431 53 166.050 L 53 166.668 61.750 170.792 L 70.500 174.916 79 177.159 L 87.500 179.401 100 179.366 L 112.500 179.330 119.416 177.540 L 126.331 175.750 133.303 172.875 L 140.275 170 141.138 170 L 142 170 142 173.839 L 142 177.677 193.250 178.347 L 244.500 179.016 322.500 179.241 L 400.500 179.467 432.750 179.761 L 465 180.054 465 181.340 L 465 182.626 467.786 185.295 L 470.572 187.964 473.670 188.584 L 476.768 189.204 480.428 187.467 L 484.088 185.730 485.544 182.915 L 487 180.099 487 177 L 487 173.901 485.452 170.907 L 483.904 167.914 481.387 166.957 L 478.870 166 475.157 166 L 471.445 166 469.217 167.561 L 466.989 169.121 465.399 172.195 L 463.809 175.269 432.155 174.647 L 400.500 174.024 332 173.953 L 263.500 173.882 205.250 173.287 L 147 172.691 147 169.962 L 147 167.233 145.090 166.734 L 143.180 166.234 143.189 159.867 L 143.197 153.500 143.098 151.750 L 143 150 141.346 150 L 139.693 150 136.096 146.250 L 132.500 142.500 120.250 142.809 L 108 143.118 108 144.913 L 108 146.708 105.548 149.354 L 103.095 152 100.482 152 L 97.869 152 95.850 150.920 L 93.831 149.839 92.402 146.420 L 90.973 143 78.555 143 L 66.136 143 64.025 145.965 L 61.914 148.930 58.321 149.922 L 54.729 150.914 51.569 149.593 L 48.409 148.273 46.704 145.672 L 45 143.070 45 139.880 L 45 136.690 49.023 132.864 L 53.046 129.037 53.556 121.768 L 54.067 114.500 53.440 109.754 L 52.814 105.009 49.679 104.197 L 46.545 103.384 44.770 100.347 L 42.996 97.309 44.048 94.292 L 45.100 91.276 47.597 90.138 L 50.094 89 51.436 89 L 52.777 89 53.404 85.662 L 54.030 82.325 53.906 73.560 L 53.783 64.795 51.717 63.147 L 49.650 61.500 47.325 59.295 L 45 57.091 45 53.445 L 45 49.800 48.528 46.272 L 52.056 42.744 56.278 43.300 L 60.500 43.856 64.115 48.030 L 67.730 52.204 79.590 51.772 L 91.451 51.340 92.110 48.114 L 92.770 44.889 94.635 43.476 L 96.500 42.064 99.527 42.032 L 102.555 42 104.761 43.545 L 106.966 45.090 107.797 48.295 L 108.628 51.500 120.860 51.611 L 133.092 51.722 134.495 49.010 L 135.898 46.297 138.414 44.648 L 140.930 43 144.359 43 L 147.788 43 150.837 45.848 L 153.885 48.695 154.556 51.367 L 155.227 54.039 153.996 57.011 L 152.765 59.982 149.352 62.091 L 145.940 64.200 146.220 76.280 L 146.500 88.359 149.357 89.122 L 152.215 89.885 154.107 91.597 L 156 93.310 156 96.655 L 156 100 154 102 L 152 104 150.122 104 L 148.245 104 147.181 105.282 L 146.116 106.565 146.184 117.716 L 146.251 128.867 150.083 131.946 L 153.914 135.025 154.555 138.442 L 155.196 141.859 153.463 144.794 L 151.729 147.729 148.833 149.440 L 145.937 151.150 146.177 157.645 L 146.416 164.139 147.246 164.652 L 148.076 165.165 155.038 159.469 L 162 153.773 162.027 153.137 L 162.053 152.500 166.039 148 L 170.025 143.500 170.797 142.500 L 171.570 141.500 175.722 133 L 179.875 124.500 181.431 119 L 182.987 113.500 183.876 104.685 L 184.765 95.869 183.938 88.498 L 183.111 81.128 182.008 76.814 L 180.904 72.500 178.746 67 L 176.589 61.500 173.059 55.500 L 169.529 49.500 168.514 48.096 L 167.500 46.692 160.066 38.946 L 152.633 31.200 147.066 27.859 L 141.500 24.519 141.167 23.759 L 140.833 23 140.044 23 L 139.254 23 134.377 20.805 L 129.500 18.609 128.500 18.424 L 127.500 18.239 122 16.507 L 116.500 14.775 102.500 14.464 L 88.500 14.153 86 14.619 M 65.049 57.881 L 63.856 60.763 60.178 62.631 L 56.500 64.500 55.755 65.500 L 55.009 66.500 55.143 76.500 L 55.276 86.500 55.888 88.165 L 56.500 89.830 66 80.857 L 75.500 71.884 83.750 64.280 L 92 56.676 92 55.838 L 92 55 79.121 55 L 66.243 55 65.049 57.881 M 107.792 55.542 L 107.250 56.083 117.875 66.336 L 128.500 76.589 135.750 83.459 L 143 90.328 143.164 85.914 L 143.329 81.500 143.633 75 L 143.937 68.500 143.449 66.250 L 142.962 64 141.616 64 L 140.270 64 137.560 61.869 L 134.851 59.737 133.950 57.369 L 133.050 55 120.691 55 L 108.333 55 107.792 55.542 M 87.743 63.500 L 81.438 69.500 70.096 80.365 L 58.754 91.231 58.514 96.630 L 58.274 102.029 66.387 109.839 L 74.500 117.648 83.852 126.574 L 93.204 135.500 99.426 135.589 L 105.648 135.679 113.236 128.589 L 120.824 121.500 130.703 112.182 L 140.581 102.863 140.506 97.112 L 140.431 91.361 127.966 79.347 L 115.500 67.332 110.258 62.496 L 105.015 57.659 99.532 57.579 L 94.048 57.500 87.743 63.500 M 309.349 60.055 L 303.197 60.857 296.349 62.518 L 289.500 64.178 280.500 68.516 L 271.500 72.854 269.157 74.677 L 266.813 76.500 264.657 78.580 L 262.500 80.661 259.707 84.075 L 256.913 87.490 254.493 92.607 L 252.072 97.724 251.061 102.112 L 250.049 106.500 250.124 114 L 250.199 121.500 250.850 123.814 L 251.500 126.129 251.500 114.314 L 251.500 102.500 253.803 96.435 L 256.106 90.370 260.374 84.935 L 264.642 79.500 271.571 74.896 L 278.500 70.291 286.331 67.163 L 294.161 64.034 302.831 62.313 L 311.500 60.592 328.500 60.622 L 345.500 60.652 352 61.873 L 358.500 63.094 365 65.171 L 371.500 67.248 378.500 70.837 L 385.500 74.426 392.073 80.963 L 398.646 87.500 401.303 93 L 403.961 98.500 404.983 105.793 L 406.005 113.085 404.894 120.244 L 403.783 127.403 401.194 132.951 L 398.604 138.500 391.552 145.609 L 384.500 152.718 379.151 155.426 L 373.801 158.134 374.373 158.706 L 374.944 159.278 380.585 155.889 L 386.226 152.500 390.664 148.620 L 395.102 144.741 399.107 138.842 L 403.112 132.944 404.544 128.222 L 405.976 123.500 406.589 117.500 L 407.202 111.500 406.059 105 L 404.915 98.500 402.010 92.500 L 399.105 86.500 393.803 80.870 L 388.500 75.241 381.637 71.165 L 374.774 67.089 367.137 64.552 L 359.500 62.015 349.500 60.513 L 339.500 59.012 327.500 59.133 L 315.500 59.254 309.349 60.055 M 209.498 61.959 L 230.495 62.500 229.998 66.500 L 229.500 70.500 229.500 113 L 229.500 155.500 229.980 160 L 230.459 164.500 209.729 164.500 L 188.999 164.500 188.999 165.270 L 189 166.040 210.250 165.770 L 231.500 165.500 231 156 L 230.500 146.500 230.500 111 L 230.500 75.500 231 68.500 L 231.500 61.500 210 61.459 L 188.500 61.418 209.498 61.959 M 425.136 63.750 L 425.272 66.500 425.706 64.250 L 426.139 62 446.534 62 L 466.930 62 467.883 63.750 L 468.836 65.500 484.168 80.527 L 499.500 95.553 515.250 110.985 L 531 126.416 531.032 125.458 L 531.064 124.500 530.918 100 L 530.772 75.500 530.079 70 L 529.387 64.500 529.841 94.139 L 530.295 123.778 516.281 110.139 L 502.268 96.500 487.610 82.500 L 472.952 68.500 470.340 64.750 L 467.728 61 446.364 61 L 425 61 425.136 63.750 M 528.459 62.067 L 527.800 63.133 528.400 63.733 L 529 64.333 529 63.167 L 529 62 548.750 62 L 568.500 62 568.500 113.443 L 568.500 164.887 548.754 164.912 L 529.009 164.936 511.108 147.218 L 493.207 129.500 479.603 116.056 L 466 102.612 466 101.806 L 466 101 465 101 L 464 101 464.163 107.750 L 464.326 114.500 464.913 109.275 L 465.500 104.050 496.972 135.025 L 528.445 166 537.222 166 L 546 166 546 178 L 546 190 548.250 190.034 L 550.500 190.067 556.500 190.483 L 562.500 190.898 566.357 189.758 L 570.214 188.619 571.739 185.421 L 573.264 182.222 572.589 178.623 L 571.914 175.024 569.784 173.884 L 567.654 172.744 569.827 175.507 L 572 178.270 572 180.912 L 572 183.555 570.497 185.701 L 568.994 187.847 565.432 189.023 L 561.870 190.198 558.185 189.455 L 554.500 188.712 550.750 188.932 L 547 189.153 547 178.150 L 547 167.147 548.750 166.754 L 550.500 166.362 552.807 167.178 L 555.114 167.994 554.498 166.997 L 553.882 166 561.691 166 L 569.500 166 569.500 113.500 L 569.500 61 549.309 61 L 529.118 61 528.459 62.067 M 189.195 67.500 L 189.232 70.500 189.693 68.731 L 190.154 66.962 189.656 65.731 L 189.158 64.500 189.195 67.500 M 426.461 114 L 426.461 159.500 426.749 136.750 L 427.038 114 426.749 91.250 L 426.461 68.500 426.461 114 M 317.190 81.850 L 314.879 82.500 327.190 82.500 L 339.500 82.500 344.500 84.409 L 349.500 86.317 352.808 88.540 L 356.115 90.763 359.080 94.794 L 362.044 98.824 363.451 102.662 L 364.859 106.500 364.920 105 L 364.980 103.500 362.546 98.500 L 360.112 93.500 358.292 91.430 L 356.471 89.361 351.986 86.732 L 347.500 84.104 341.540 82.552 L 335.580 81 327.540 81.100 L 319.500 81.199 317.190 81.850 M 306.061 86.034 L 300.622 89.032 298.708 90.765 L 296.793 92.498 294.494 96.499 L 292.196 100.500 291.637 104 L 291.077 107.500 292.566 102.860 L 294.054 98.220 298.056 93.674 L 302.058 89.127 308.189 86.064 L 314.319 83 312.910 83.018 L 311.500 83.036 306.061 86.034 M 55.686 105.375 L 55.103 106.894 55.457 116.697 L 55.810 126.500 55.905 127.750 L 56 129 57.423 129 L 58.847 129 61.814 131.497 L 64.782 133.994 65.410 136.497 L 66.038 139 79.019 139 L 92 139 92 138.221 L 92 137.442 86.250 132.100 L 80.500 126.758 72.473 119.129 L 64.446 111.500 60.358 107.678 L 56.269 103.857 55.686 105.375 M 136.992 109.248 L 131.500 114.316 119.316 126.057 L 107.132 137.798 107.732 138.399 L 108.333 139 120.584 139 L 132.835 139 134.668 135.250 L 136.500 131.500 140.302 129.643 L 144.104 127.786 143.894 116.354 L 143.684 104.923 143.084 104.552 L 142.483 104.181 136.992 109.248 M 365.179 112.500 L 364.973 118.500 364.458 121 L 363.944 123.500 365.014 121.048 L 366.085 118.596 365.735 112.548 L 365.385 106.500 365.179 112.500 M 290.136 112.568 L 290 117.637 291.598 123.068 L 293.195 128.500 296.320 132.599 L 299.444 136.698 302.972 139.229 L 306.500 141.759 311.500 143.481 L 316.500 145.202 324.734 145.741 L 332.969 146.280 339.234 144.988 L 345.500 143.695 349 141.951 L 352.500 140.206 355.018 137.853 L 357.537 135.500 360.408 131.723 L 363.279 127.946 362.713 127.380 L 362.147 126.814 360.663 129.657 L 359.179 132.500 356.339 135.197 L 353.500 137.894 348.816 140.383 L 344.132 142.873 338.014 144.077 L 331.895 145.281 324.698 144.700 L 317.500 144.119 312.315 142.540 L 307.131 140.961 302.238 137.094 L 297.346 133.227 294.564 127.542 L 291.783 121.857 291.027 114.678 L 290.272 107.500 290.136 112.568 M 465.415 140.740 L 465.500 163.980 464.168 164.490 L 462.836 165 444.488 165 L 426.139 165 425.656 162.750 L 425.172 160.500 425.336 163 L 425.500 165.500 445.428 165.772 L 465.357 166.043 465.961 165.272 L 466.566 164.500 465.948 141 L 465.329 117.500 465.415 140.740 M 363 125 L 363 126.333 363.667 125.667 L 364.333 125 363.667 124.333 L 363 123.667 363 125 M 252 128 L 252 129.333 252.667 128.667 L 253.333 128 252.667 127.333 L 252 126.667 252 128 M 253.264 131.750 L 253.426 134 254.104 134 L 254.783 134 255.371 136.342 L 255.959 138.684 262.729 145.846 L 269.500 153.009 270.667 153.004 L 271.833 153 272.167 153.750 L 272.500 154.500 278.500 157.634 L 284.500 160.767 292.518 163.323 L 300.536 165.880 308.992 166.940 L 317.448 168 328.151 168 L 338.855 168 346.566 166.928 L 354.276 165.855 362.888 163.366 L 371.500 160.877 372.500 159.791 L 373.500 158.706 371.500 159.502 L 369.500 160.299 361 162.600 L 352.500 164.902 342.500 166.087 L 332.500 167.271 322 166.712 L 311.500 166.153 301.195 164.046 L 290.890 161.940 286.695 160.269 L 282.500 158.599 276.282 155.050 L 270.063 151.500 264.719 146.327 L 259.375 141.153 256.238 135.327 L 253.102 129.500 253.264 131.750 M 189.195 158.500 L 189.232 161.500 189.693 159.731 L 190.154 157.962 189.656 156.731 L 189.158 155.500 189.195 158.500 M 494.219 178.057 L 494.500 190.115 505.861 190.186 L 517.223 190.257 517.979 189.034 L 518.735 187.811 521.693 189.341 L 524.652 190.871 533.076 190.453 L 541.500 190.035 542.250 190.017 L 543 190 543 183.934 L 543 177.869 541.865 175.684 L 540.729 173.500 540.500 173.219 L 540.272 172.938 537.136 172.039 L 534 171.140 534 172.070 L 534 173 536.443 173 L 538.887 173 540.443 175.223 L 542 177.445 542 183.223 L 542 189 535.750 189.202 L 529.500 189.404 526.032 189.207 L 522.565 189.009 520.879 187.255 L 519.193 185.500 520.041 183.312 L 520.889 181.125 524.695 180.068 L 528.500 179.011 531.833 179.006 L 535.167 179 534.756 177.750 L 534.346 176.500 531.551 176.172 L 528.756 175.844 527.855 176.745 L 526.953 177.647 523.977 177.210 L 521 176.773 521 175.887 L 521 175 521.250 174.985 L 521.500 174.970 525.500 173.439 L 529.500 171.908 526.095 172.460 L 522.691 173.012 521.345 174.128 L 520 175.245 520 176.622 L 520 178 522.750 178.004 L 525.500 178.007 522.250 179.989 L 519 181.971 519 182.985 L 519 184 511 184 L 503 184 503 175 L 503 166 498.469 166 L 493.938 166 494.219 178.057 M 495 178 L 495 189 506 189 L 517 189 517 187 L 517 185 509.500 185 L 502 185 502 176 L 502 167 498.500 167 L 495 167 495 178 M 143.649 171.233 L 143.066 173.466 143.920 174.320 L 144.774 175.174 145.446 174.087 L 146.118 173 145.153 173 L 144.187 173 144.710 171 L 145.233 169 144.733 169 L 144.233 169 143.649 171.233 M 555 173.046 L 553.500 174.061 556.500 173.390 L 559.500 172.719 559.917 172.359 L 560.333 172 558.417 172.015 L 556.500 172.031 555 173.046 M 563.750 172.662 L 565 173.167 566.250 172.662 L 567.500 172.158 565 172.158 L 562.500 172.158 563.750 172.662 M 145 175.435 L 142.500 176.929 144.550 176.965 L 146.600 177 147.947 175.750 L 149.293 174.500 148.599 175.732 L 147.905 176.963 206.202 177.011 L 264.500 177.059 354.938 177.551 L 445.376 178.043 444.857 177.524 L 444.337 177.004 424.919 176.320 L 405.500 175.635 330 175.470 L 254.500 175.304 201 174.622 L 147.500 173.941 145 175.435 M 485 175.500 L 485 176 485.500 176 L 486 176 486 175.500 L 486 175 485.500 175 L 485 175 485 175.500 M 446.367 176.783 L 446.810 177.500 455.655 177.836 L 464.500 178.173 463.859 177.529 L 463.219 176.886 454.571 176.476 L 445.923 176.067 446.367 176.783 M 555.655 177.829 L 554 179.657 554 181.257 L 554 182.857 555.571 184.429 L 557.143 186 559.871 186 L 562.600 186 563.800 184.800 L 565 183.600 565 180.835 L 565 178.070 563.066 177.035 L 561.131 176 559.221 176 L 557.310 176 555.655 177.829 M 530.269 177.693 L 532.038 178.154 533.269 177.656 L 534.500 177.158 531.500 177.195 L 528.500 177.232 530.269 177.693 M 556.571 178.571 L 555 180.143 555 181.593 L 555 183.043 557.578 184.217 L 560.155 185.392 561.828 184.339 L 563.500 183.286 563.833 181.595 L 564.165 179.904 562.960 178.452 L 561.755 177 559.949 177 L 558.143 177 556.571 178.571 M 527.601 183.303 L 525.819 184.605 527.262 185.802 L 528.704 186.999 531.852 185.902 L 535 184.804 535 183.402 L 535 182 532.191 182 L 529.382 182 527.601 183.303 M 529.500 184 L 527.500 184.859 530.191 184.930 L 532.882 185 533.500 184 L 534.118 183 532.809 183.070 L 531.500 183.141 529.500 184" stroke="none" fill="#7f2625" fill-rule="evenodd"/></svg>