<?xml version="1.0" encoding="UTF-8" standalone="no"?>
<svg
   xmlns:dc="http://purl.org/dc/elements/1.1/"
   xmlns:cc="http://creativecommons.org/ns#"
   xmlns:rdf="http://www.w3.org/1999/02/22-rdf-syntax-ns#"
   xmlns:svg="http://www.w3.org/2000/svg"
   xmlns="http://www.w3.org/2000/svg"
   xmlns:sodipodi="http://sodipodi.sourceforge.net/DTD/sodipodi-0.dtd"
   xmlns:inkscape="http://www.inkscape.org/namespaces/inkscape"
   width="180.85475mm"
   height="45.289333mm"
   viewBox="0 0 180.85475 45.289333"
   version="1.1"
   id="svg1171"
   inkscape:version="1.0.1 (3bc2e813f5, 2020-09-07)"
   sodipodi:docname="logo_laranja_branco.svg">
  <defs
     id="defs1165" />
  <sodipodi:namedview
     id="base"
     pagecolor="#ffffff"
     bordercolor="#666666"
     borderopacity="1.0"
     inkscape:pageopacity="0.0"
     inkscape:pageshadow="2"
     inkscape:zoom="0.98994949"
     inkscape:cx="315.64838"
     inkscape:cy="80.562676"
     inkscape:document-units="mm"
     inkscape:current-layer="g912"
     inkscape:document-rotation="0"
     showgrid="false"
     inkscape:window-width="1536"
     inkscape:window-height="864"
     inkscape:window-x="2119"
     inkscape:window-y="91"
     inkscape:window-maximized="0"
     inkscape:snap-text-baseline="false" />
  <metadata
     id="metadata1168">
    <rdf:RDF>
      <cc:Work
         rdf:about="">
        <dc:format>image/svg+xml</dc:format>
        <dc:type
           rdf:resource="http://purl.org/dc/dcmitype/StillImage" />
        <dc:title />
      </cc:Work>
    </rdf:RDF>
  </metadata>
  <g
     inkscape:label="Layer 1"
     inkscape:groupmode="layer"
     id="layer1"
     transform="translate(-17.673857,-133.44555)">
    <g
       id="g912"
       transform="matrix(0.25856326,0,0,0.25856326,-94.507602,177.34817)">
      <circle
         style="fill:#ffffff;fill-opacity:1;stroke:#ffaa4d;stroke-width:0;stroke-miterlimit:4;stroke-dasharray:none;stroke-opacity:1"
         id="circle886"
         cx="521.44348"
         cy="-82.215668"
         r="87.578827" />
      <path
         id="path888"
         d="m 543.38774,-89.999409 h 15.06698 v 10.04468 h 10.04466 v 5.022293 H 553.4324 v -10.044623 h -5.02233 v 10.044623 H 503.20913 V -84.977059 H 483.1198 V -105.0664 h -5.02231 v 30.133964 h -10.04466 v -5.022293 h 5.02229 v -30.134001 h 15.06699 v 20.089321 h 20.08934 v 10.04468 h 35.15629 z m -22.90058,38.310337 h -4.4234 v -5.02233 h 4.4234 z m -20.97071,1.868306 h -31.46362 v -5.022312 h 38.98706 l -26.41115,45.2009331 h -5.12027 z m 61.52728,40.1786211 h -5.12024 L 529.51231,-54.843078 h 38.98707 v 5.022312 H 537.03575 Z M 520.48716,-36.622101 h -4.4234 v -10.044641 h 4.4234 z"
         inkscape:connector-curvature="0"
         style="fill:#0175a4;fill-rule:evenodd;stroke-width:0.502233;fill-opacity:1" />
      <path
         id="path890"
         d="m 553.39951,-128.27878 c 0.95684,-1.53708 2.64823,-2.56898 4.59193,-2.56898 2.9941,0 5.42154,2.42747 5.42365,5.42229 0,2.99411 -2.42741,5.42152 -5.42152,5.42152 -2.99409,0 -5.42155,-2.42741 -5.42155,-5.42152 0,-0.0401 0.0102,-0.0765 0.0102,-0.11635 l -8.17982,-2.0844 0.4102,5.49871 c 0.89393,0.46231 1.51204,1.38555 1.51204,2.46173 0,1.53632 -1.24552,2.78189 -2.78185,2.78189 -1.53637,0 -2.78192,-1.24557 -2.78192,-2.78189 0,-0.94972 0.47806,-1.78647 1.20408,-2.28807 l -0.47806,-6.41558 -2.7854,-0.70954 c -1.21338,2.749 -3.76302,4.76768 -6.8264,5.24646 l 0.87533,13.17904 c 0.15932,0.0241 0.31725,0.0241 0.47735,0.06 2.91835,0.67101 4.73982,3.58084 4.06882,6.49844 -0.671,2.9184 -3.58075,4.739851 -6.49844,4.06884 -2.91834,-0.67097 -4.73982,-3.58076 -4.06881,-6.4984 0.40587,-1.7643 1.63567,-3.11559 3.18489,-3.76943 l -0.50163,-7.55531 -5.68164,2.31526 c -0.0102,0.0637 -0.0102,0.12622 -0.0241,0.1903 -0.34372,1.49774 -1.83719,2.43243 -3.33428,2.08795 -1.49775,-0.3437 -2.43244,-1.83716 -2.08801,-3.3342 0.34372,-1.49778 1.83722,-2.43246 3.33426,-2.08803 0.39515,0.0906 0.74745,0.26513 1.05114,0.49522 l 6.54276,-2.6661 -0.19883,-2.99408 c -2.49462,-0.40948 -4.64551,-1.83578 -5.99964,-3.8509 l -13.08614,6.24185 c 0.002,0.29575 -0.006,0.5931 -0.0515,0.89537 -0.47023,2.95695 -3.24851,4.97279 -6.20546,4.50261 -2.95692,-0.47017 -4.97277,-3.24852 -4.50258,-6.20545 0.47019,-2.95694 3.24852,-4.97278 6.20541,-4.50259 1.62714,0.25868 2.94984,1.22911 3.74945,2.53179 l 12.70385,-6.05971 c -0.21426,-0.76814 -0.33729,-1.57493 -0.33729,-2.41171 0,-1.85788 0.56383,-3.58431 1.52994,-5.0171 l -4.40327,-5.03776 -10.28926,2.13586 c -0.0102,0.0296 -0.0102,0.0584 -0.0213,0.0871 -0.53238,1.44132 -2.13233,2.17732 -3.57363,1.64499 -1.44132,-0.53237 -2.17734,-2.1323 -1.64496,-3.57367 0.53234,-1.44129 2.13232,-2.17731 3.5736,-1.64497 0.41447,0.15313 0.76177,0.40158 1.04615,0.70173 l 8.75437,-1.81716 -2.67826,-3.06414 c -0.88036,0.45878 -1.89079,0.69316 -2.95339,0.6031 -2.98335,-0.2528 -5.19714,-2.87618 -4.94418,-5.85956 0.25309,-2.98337 2.87622,-5.19715 5.85957,-4.9442 2.9834,0.25279 5.19719,2.87617 4.9442,5.85957 -0.0747,0.88537 -0.37798,1.68929 -0.81819,2.39457 l 5.27932,6.04037 1.90579,-5.15002 c -0.49877,-0.61453 -0.74316,-1.42915 -0.58309,-2.26734 0.2873,-1.50922 1.74431,-2.49962 3.25351,-2.21166 1.5092,0.28721 2.49962,1.74429 2.21166,3.25349 -0.21936,1.15052 -1.11981,1.99512 -2.2031,2.2059 l -2.44813,6.61423 1.69786,1.94293 c 1.51988,-1.17689 3.4214,-1.88439 5.49228,-1.88439 1.44914,0 2.81329,0.35089 4.02593,0.96044 l 6.52628,-11.2711 c -1.19478,-1.16906 -1.84645,-2.8619 -1.58923,-4.64337 0.42806,-2.96335 3.17705,-5.01851 6.14041,-4.59045 2.96409,0.42802 5.01923,3.17703 4.59123,6.1404 -0.42806,2.96334 -3.17706,5.0185 -6.14043,4.59044 -0.17365,-0.0269 -0.33229,-0.0835 -0.49947,-0.12448 l -3.02698,5.22648 5.39005,1.72357 c 0.59171,-0.52593 1.39417,-0.80678 2.2388,-0.68459 1.52064,0.22016 2.57539,1.6307 2.35599,3.15131 -0.22019,1.52065 -1.63068,2.57539 -3.15129,2.35596 -1.15905,-0.16707 -2.043,-1.02827 -2.30239,-2.10158 l -5.99393,-1.91651 -2.20949,3.81589 c 1.6264,1.62641 2.63251,3.87376 2.63251,6.35552 0,0.2908 -0.0155,0.57807 -0.0435,0.86175 z"
         inkscape:connector-curvature="0"
         style="fill:#0175a4;fill-rule:evenodd;stroke-width:0.321566;fill-opacity:1" />
      <text
         xml:space="preserve"
         style="font-style:normal;font-weight:normal;font-size:54.5751px;line-height:1.25;font-family:Poppins;text-align:center;letter-spacing:0px;word-spacing:0px;text-anchor:middle;fill:#ffffff;fill-opacity:1;stroke:none;stroke-width:1.58423"
         x="870.47156"
         y="-99.3106"
         id="text896"><tspan
           sodipodi:role="line"
           id="tspan892"
           x="870.47156"
           y="-99.3106"
           style="font-style:normal;font-variant:normal;font-weight:bold;font-stretch:normal;font-size:54.5751px;font-family:Tahoma;-inkscape-font-specification:'Tahoma Bold';text-align:center;text-anchor:middle;fill:#ffffff;stroke-width:1.58423">Urban Computing</tspan><tspan
           sodipodi:role="line"
           x="870.47156"
           y="-29.587379"
           style="font-style:normal;font-variant:normal;font-weight:bold;font-stretch:normal;font-size:54.5751px;font-family:Tahoma;-inkscape-font-specification:'Tahoma Bold';text-align:center;text-anchor:middle;fill:#ffffff;stroke-width:1.58423"
           id="tspan894">Lab</tspan></text>
    </g>
  </g>
</svg>
