<svg xmlns="http://www.w3.org/2000/svg" width="3145" height="1868" viewBox="0 0 3145 1868" version="1.1"><path d="M 408 420.091 C 316.204 425.992, 227.280 461.476, 157.334 520.116 C 124.229 547.870, 97.126 578.103, 73.620 613.500 C 52.446 645.384, 39.107 671.707, 26.202 707.070 C -8.369 801.809, -8.369 909.191, 26.202 1003.930 C 39.107 1039.293, 52.446 1065.616, 73.620 1097.500 C 132.126 1185.601, 221.618 1249.980, 323 1276.898 C 404.925 1298.651, 490.221 1296.392, 571.500 1270.316 C 591.604 1263.866, 627.193 1248.676, 637.900 1241.975 L 641.301 1239.847 640.700 1225.806 C 640.370 1218.084, 639.869 1211.535, 639.586 1211.253 C 639.303 1210.970, 631.968 1214.360, 623.286 1218.786 C 577.371 1242.190, 537.375 1254.551, 484.500 1261.678 C 474.169 1263.070, 464.213 1263.430, 436 1263.430 C 399.084 1263.430, 390.361 1262.777, 364 1258.038 C 262.110 1239.723, 171.741 1183.884, 109.042 1100.500 C 78.074 1059.316, 54.503 1010.552, 41.095 959.929 C 19.066 876.757, 24.502 784.957, 56.192 705 C 108.366 573.359, 224.858 477.973, 364 452.962 C 390.361 448.223, 399.084 447.570, 436 447.570 C 472.916 447.570, 481.639 448.223, 508 452.962 C 612.793 471.799, 705.805 530.636, 768.109 617.500 C 801.578 664.163, 825.134 718.468, 836.429 775 C 842.442 805.093, 843.450 816.650, 843.450 855.500 C 843.450 887.504, 843.199 893.276, 841.188 907.500 C 834.249 956.593, 822.099 996.450, 801.463 1037.811 C 770.773 1099.322, 727.080 1150.183, 670.369 1190.412 L 662.238 1196.180 661.643 1201.840 C 661.316 1204.953, 660.746 1212.603, 660.376 1218.840 L 659.704 1230.180 669.602 1223.876 C 720.742 1191.306, 764.793 1148.078, 798.380 1097.500 C 819.554 1065.616, 832.893 1039.293, 845.798 1003.930 C 880.369 909.191, 880.369 801.809, 845.798 707.070 C 832.893 671.707, 819.554 645.384, 798.380 613.500 C 739.384 524.660, 649.571 460.413, 546.827 433.554 C 501.515 421.708, 454.205 417.120, 408 420.091 M 419 579.098 C 399.336 582.938, 383 603.153, 383 623.644 L 383 627.016 322.923 626.758 L 262.847 626.500 261.077 621.500 C 257.543 611.516, 253.700 605.476, 246.112 597.980 C 237.321 589.295, 231.246 585.748, 220.415 582.978 C 210.614 580.472, 202.386 580.472, 192.585 582.978 C 181.726 585.755, 175.679 589.295, 166.766 598.093 C 160.904 603.878, 158.179 607.522, 155.510 613.142 C 147.171 630.701, 147.113 648.177, 155.337 665.495 C 161.498 678.468, 175.709 691.126, 188.247 694.811 L 193.997 696.500 193.999 752.603 L 194 808.706 189.250 808.253 C 167.264 806.155, 145.291 823.981, 141.762 846.779 C 137.467 874.531, 160.881 900.564, 188.583 898.838 L 194.003 898.500 193.988 953.500 L 193.972 1008.500 188.258 1010.316 C 169.977 1016.126, 154.739 1033.571, 150.511 1053.529 C 147.735 1066.638, 149.325 1078.835, 155.510 1091.858 C 158.179 1097.478, 160.904 1101.122, 166.766 1106.907 C 175.679 1115.705, 181.726 1119.245, 192.585 1122.022 C 219.328 1128.861, 245.797 1116.128, 258.203 1090.456 L 261.565 1083.500 322.135 1083.242 L 382.705 1082.985 383.332 1090.400 C 386.131 1123.515, 420.216 1142.593, 449.798 1127.602 C 455.984 1124.467, 465.459 1115.001, 468.586 1108.831 C 471.739 1102.607, 474 1093.819, 474 1087.782 L 474 1082.984 532.710 1083.242 L 591.420 1083.500 595.106 1091.080 C 599.485 1100.086, 608.031 1109.743, 616.458 1115.206 C 621.703 1118.606, 629.474 1121.544, 638.250 1123.443 L 641 1124.038 641 1164.519 C 641 1186.784, 641.337 1204.974, 641.750 1204.943 C 642.163 1204.911, 646.775 1202.966, 652 1200.620 L 661.500 1196.355 662 1159.126 L 662.500 1121.896 668.108 1119.618 C 689.095 1111.090, 704 1088.616, 704 1065.500 C 704 1040.991, 687.304 1017.832, 663.750 1009.669 C 662.112 1009.102, 662 1005.545, 662 954.031 L 662 899 667.290 899 C 679.062 899, 690.951 894.006, 699.478 885.478 C 717.403 867.554, 717.407 839.624, 699.487 821.704 C 690.716 812.934, 678.789 808, 666.355 808 L 661.983 808 662.242 751.948 L 662.500 695.897 668.024 693.652 C 680.904 688.417, 691.166 678.622, 697.518 665.500 C 706.082 647.807, 706.210 631.879, 697.931 614.144 C 694.788 607.410, 692.523 604.300, 686.265 598.124 C 677.321 589.296, 671.282 585.758, 660.415 582.978 C 650.614 580.472, 642.386 580.472, 632.585 582.978 C 621.754 585.748, 615.679 589.295, 606.888 597.980 C 599.247 605.528, 595.343 611.701, 592.010 621.500 L 590.309 626.500 532.155 626.758 L 474 627.016 474 622.718 C 474 611.881, 468.854 600.072, 460.487 591.704 C 449.407 580.625, 434.452 576.080, 419 579.098 M 261.764 656.250 C 256.959 670.045, 248.010 681.782, 236.723 689.093 C 231.061 692.760, 220.381 697, 216.806 697 C 215.086 697, 215 699.715, 215 754.155 L 215 811.310 217.201 809.405 C 222.999 804.386, 382.543 654.506, 382.833 653.805 C 383.017 653.362, 356.106 653, 323.031 653 L 262.896 653 261.764 656.250 M 475.167 653.790 C 475.657 654.952, 638.999 816.441, 640.080 816.833 C 640.633 817.034, 641 793.414, 641 757.602 L 641 698.038 638.250 697.443 C 623.205 694.187, 613.987 689.121, 604.593 678.945 C 599.301 673.213, 595.852 667.257, 591.163 655.750 L 590.043 653 532.438 653 C 500.755 653, 474.983 653.355, 475.167 653.790 M 456.411 659.102 C 453.732 662.066, 446.086 665.763, 438.735 667.648 C 430.395 669.787, 420.325 668.994, 411.620 665.511 C 407.957 664.046, 404.554 662.994, 404.058 663.173 C 403.561 663.353, 364.582 699.725, 317.437 744 C 270.292 788.275, 230.366 825.649, 228.712 827.054 L 225.706 829.609 228.571 836.554 C 231.069 842.613, 231.435 844.777, 231.435 853.500 C 231.435 862.200, 231.067 864.394, 228.599 870.375 L 225.763 877.249 234.631 886.043 C 239.509 890.880, 279.658 929.478, 323.851 971.817 L 404.202 1048.797 409.457 1046.391 C 419.787 1041.662, 432.917 1040.942, 443.130 1044.546 L 447.392 1046.050 452.946 1040.674 C 456.001 1037.718, 494.500 1001.868, 538.500 961.007 C 582.500 920.147, 620.690 884.585, 623.367 881.979 L 628.234 877.242 625.446 870.371 C 621.925 861.692, 621.462 848.910, 624.327 839.500 L 626.154 833.500 578.827 786.504 C 552.797 760.656, 514.190 722.313, 493.034 701.298 L 454.568 663.089 456.954 660.549 C 458.267 659.151, 459.112 657.778, 458.831 657.498 C 458.551 657.217, 457.461 657.939, 456.411 659.102 M 554 974.784 C 506.425 1019.066, 467.349 1055.683, 467.164 1056.156 C 466.978 1056.631, 494.203 1056.900, 528.084 1056.758 L 589.341 1056.500 591.501 1049.500 C 594.975 1038.240, 598.682 1032.089, 606.888 1023.960 C 615.436 1015.493, 623.987 1010.693, 634.250 1008.600 L 640.500 1007.325 640.765 978.591 C 640.911 962.788, 640.911 937.351, 640.765 922.065 L 640.500 894.271 554 974.784 M 215 952.125 L 215 1007.657 220.136 1008.842 C 235.297 1012.342, 250.731 1024.908, 257.579 1039.329 C 259.565 1043.511, 261.739 1049.085, 262.410 1051.716 L 263.630 1056.500 322.401 1056.758 C 359.053 1056.919, 381.046 1056.660, 380.836 1056.070 C 380.569 1055.317, 328.262 1005.011, 218.750 900.184 L 215 896.594 215 952.125" stroke="none" fill="#ffffff" fill-rule="evenodd"/><path d="M 1509.500 642.038 C 1405.036 649.635, 1321.221 682.077, 1263.381 737.300 C 1223.827 775.064, 1199.463 822.770, 1191.013 879 C 1184.991 919.073, 1186.488 961.983, 1195.182 998.500 C 1208.280 1053.518, 1236.631 1097.759, 1282 1133.976 C 1342.272 1182.090, 1420.341 1208.098, 1522.500 1214.096 C 1544.749 1215.402, 1598.949 1214.804, 1618.500 1213.036 C 1699.670 1205.695, 1761.852 1186.423, 1812.315 1152.965 C 1873.542 1112.371, 1913.494 1056.041, 1927.545 990.500 C 1931.805 970.628, 1933.048 959.588, 1933.682 935.995 C 1936.738 822.214, 1888.915 740.924, 1787.824 688.065 C 1741.372 663.776, 1691.374 650.114, 1624.500 643.437 C 1605.828 641.572, 1528.789 640.635, 1509.500 642.038 M 880.595 671.314 C 878.052 673.857, 878 674.187, 878.001 687.705 C 878.002 703.783, 879.372 744.569, 881.504 792 C 886.298 898.655, 886.236 928.982, 880.955 1062 C 879.853 1089.775, 878.665 1131.476, 878.317 1154.669 L 877.683 1196.837 880.914 1200.068 L 884.145 1203.299 910.323 1202.678 C 924.720 1202.336, 947.503 1201.589, 960.951 1201.017 C 977.392 1200.319, 992.952 1200.300, 1008.451 1200.961 C 1021.128 1201.502, 1043.429 1202.458, 1058.009 1203.086 C 1081.589 1204.102, 1084.936 1204.053, 1088.295 1202.650 C 1095.477 1199.649, 1095.449 1199.912, 1094.112 1147 C 1093.465 1121.425, 1092.065 1078.287, 1090.999 1051.139 C 1086.310 931.671, 1086.241 897.068, 1090.498 802 C 1093.130 743.230, 1093.997 716.791, 1093.998 695.205 C 1094 673.927, 1093.998 673.907, 1091.545 671.455 C 1088.454 668.363, 1086.815 668.342, 1031.586 670.667 C 995.641 672.180, 986.593 672.235, 957.086 671.117 C 938.614 670.418, 914.430 669.592, 903.345 669.282 L 883.191 668.718 880.595 671.314 M 2225 676.500 C 2223.910 677.813, 2212.549 678, 2133.878 678 L 2044 678 2044 935.500 L 2044 1193 2125.836 1193 C 2170.847 1193, 2223.945 1192.702, 2243.833 1192.338 L 2279.993 1191.676 2280.246 1056.194 L 2280.500 920.712 2360.128 998.817 L 2439.756 1076.922 2477.390 1134.299 L 2515.024 1191.677 2548.175 1192.339 C 2566.408 1192.702, 2618.603 1193, 2664.163 1193 L 2747 1193 2747 935.500 L 2747 678 2635.003 678 L 2523.007 678 2522.753 820.560 L 2522.500 963.119 2465 906.725 L 2407.500 850.330 2352.577 765.915 C 2322.370 719.487, 2296.988 680.712, 2296.172 679.750 C 2294.818 678.151, 2291.948 678, 2262.967 678 C 2235.990 678, 2231.059 677.776, 2230 676.500 C 2229.315 675.675, 2228.190 675, 2227.500 675 C 2226.810 675, 2225.685 675.675, 2225 676.500 M 1536.500 812.692 C 1474.874 816.774, 1432.658 833.858, 1405.476 865.715 C 1388.169 885.999, 1380.060 909.777, 1381.336 936.500 C 1382.561 962.155, 1391.782 983.147, 1410.170 1002.140 C 1438.667 1031.575, 1479.962 1046.024, 1544 1048.965 C 1597.150 1051.406, 1644.304 1044.609, 1675.740 1029.975 C 1693.413 1021.748, 1711.124 1007.634, 1722.003 993.107 C 1744.311 963.319, 1747.982 918.982, 1730.996 884.500 C 1712.805 847.571, 1674.457 824.128, 1619 816.034 C 1595.406 812.590, 1559.806 811.148, 1536.500 812.692 M 2396.628 1217.750 C 2395.657 1250.041, 2392.512 1299.388, 2390.350 1316.259 L 2389.740 1321.019 2439.620 1320.759 L 2489.500 1320.500 2490.180 1310.500 C 2490.553 1305, 2491.040 1298.139, 2491.262 1295.252 L 2491.664 1290.005 2468.582 1290.654 C 2455.887 1291.011, 2443.304 1290.974, 2440.619 1290.571 L 2435.738 1289.838 2436.411 1277.169 C 2437.940 1248.394, 2440.041 1211.939, 2440.643 1203.750 L 2441.287 1195 2419.299 1195 L 2397.312 1195 2396.628 1217.750 M 2642 1203.918 C 2642 1220.295, 2638.433 1289.629, 2636.350 1313.750 L 2635.724 1321 2654.862 1321 L 2674 1321 2674 1316.922 L 2674 1312.844 2677.912 1316.193 C 2683.817 1321.247, 2690.930 1323.473, 2701 1323.418 C 2717.946 1323.326, 2730.441 1316.342, 2738.614 1302.395 C 2745.397 1290.821, 2748.618 1271.973, 2746.114 1258.500 C 2743.009 1241.789, 2731.940 1229.731, 2715.744 1225.420 C 2709.953 1223.878, 2689.700 1223.536, 2683.910 1224.882 L 2680.321 1225.717 2680.714 1220.609 C 2680.930 1217.799, 2681.531 1211.675, 2682.050 1207 C 2682.570 1202.325, 2682.996 1197.713, 2682.997 1196.750 C 2683 1195.140, 2681.358 1195, 2662.500 1195 L 2642 1195 2642 1203.918 M 2558.417 1224.130 C 2547.738 1224.881, 2524.930 1228.626, 2523.872 1229.802 C 2523.158 1230.597, 2519.631 1254.969, 2520.157 1255.481 C 2520.346 1255.664, 2525.900 1254.249, 2532.500 1252.335 C 2544.570 1248.835, 2559.831 1246.988, 2565.309 1248.363 C 2568.587 1249.185, 2569.723 1252.543, 2567.540 1254.956 C 2565.762 1256.921, 2563.954 1257.477, 2544.735 1261.971 C 2537.714 1263.613, 2529.389 1266.173, 2526.235 1267.660 C 2518.611 1271.255, 2511.038 1279.090, 2508.619 1285.887 C 2503.490 1300.295, 2512.162 1317.245, 2526.973 1321.758 C 2533.269 1323.676, 2554.353 1324.021, 2557.503 1322.258 C 2558.761 1321.554, 2560.423 1317.533, 2562.621 1309.879 C 2564.411 1303.644, 2565.777 1298.444, 2565.657 1298.323 C 2565.536 1298.203, 2562.382 1298.628, 2558.648 1299.268 C 2550.673 1300.633, 2546.714 1299.249, 2546.203 1294.916 C 2545.764 1291.197, 2548.794 1289.060, 2559.670 1285.418 L 2569.282 1282.200 2568.614 1293.850 C 2568.247 1300.257, 2567.669 1308.987, 2567.330 1313.250 L 2566.712 1321 2586.225 1321 L 2605.738 1321 2606.358 1317.250 C 2606.699 1315.188, 2606.983 1309.479, 2606.989 1304.566 C 2606.995 1299.652, 2607.716 1284.944, 2608.590 1271.881 C 2610.046 1250.135, 2610.045 1247.667, 2608.582 1242.635 C 2604.382 1228.185, 2587.787 1222.064, 2558.417 1224.130 M 2682.524 1253.838 C 2678.745 1254.467, 2678.506 1254.724, 2677.716 1259 C 2676.521 1265.468, 2677.452 1280.850, 2679.303 1285.228 C 2683.794 1295.849, 2698.374 1295.479, 2703.923 1284.603 C 2707.119 1278.338, 2707.453 1267.505, 2704.626 1261.766 C 2701.334 1255.082, 2693.003 1252.094, 2682.524 1253.838" stroke="none" fill="#000000" fill-rule="evenodd"/><path d="M 1509.500 642.038 C 1405.036 649.635, 1321.221 682.077, 1263.381 737.300 C 1223.827 775.064, 1199.463 822.770, 1191.013 879 C 1184.991 919.073, 1186.488 961.983, 1195.182 998.500 C 1208.280 1053.518, 1236.631 1097.759, 1282 1133.976 C 1342.272 1182.090, 1420.341 1208.098, 1522.500 1214.096 C 1544.749 1215.402, 1598.949 1214.804, 1618.500 1213.036 C 1699.670 1205.695, 1761.852 1186.423, 1812.315 1152.965 C 1873.542 1112.371, 1913.494 1056.041, 1927.545 990.500 C 1931.805 970.628, 1933.048 959.588, 1933.682 935.995 C 1936.738 822.214, 1888.915 740.924, 1787.824 688.065 C 1741.372 663.776, 1691.374 650.114, 1624.500 643.437 C 1605.828 641.572, 1528.789 640.635, 1509.500 642.038 M 880.595 671.314 C 878.052 673.857, 878 674.187, 878.001 687.705 C 878.002 703.783, 879.372 744.569, 881.504 792 C 886.298 898.655, 886.236 928.982, 880.955 1062 C 879.853 1089.775, 878.665 1131.476, 878.317 1154.669 L 877.683 1196.837 880.914 1200.068 L 884.145 1203.299 910.323 1202.678 C 924.720 1202.336, 947.503 1201.589, 960.951 1201.017 C 977.392 1200.319, 992.952 1200.300, 1008.451 1200.961 C 1021.128 1201.502, 1043.429 1202.458, 1058.009 1203.086 C 1081.589 1204.102, 1084.936 1204.053, 1088.295 1202.650 C 1095.477 1199.649, 1095.449 1199.912, 1094.112 1147 C 1093.465 1121.425, 1092.065 1078.287, 1090.999 1051.139 C 1086.310 931.671, 1086.241 897.068, 1090.498 802 C 1093.130 743.230, 1093.997 716.791, 1093.998 695.205 C 1094 673.927, 1093.998 673.907, 1091.545 671.455 C 1088.454 668.363, 1086.815 668.342, 1031.586 670.667 C 995.641 672.180, 986.593 672.235, 957.086 671.117 C 938.614 670.418, 914.430 669.592, 903.345 669.282 L 883.191 668.718 880.595 671.314 M 2225 676.500 C 2223.910 677.813, 2212.549 678, 2133.878 678 L 2044 678 2044 935.500 L 2044 1193 2125.836 1193 C 2170.847 1193, 2223.945 1192.702, 2243.833 1192.338 L 2279.993 1191.676 2280.246 1056.194 L 2280.500 920.712 2360.128 998.817 L 2439.756 1076.922 2477.390 1134.299 L 2515.024 1191.677 2548.175 1192.339 C 2566.408 1192.702, 2618.603 1193, 2664.163 1193 L 2747 1193 2747 935.500 L 2747 678 2635.003 678 L 2523.007 678 2522.753 820.560 L 2522.500 963.119 2465 906.725 L 2407.500 850.330 2352.577 765.915 C 2322.370 719.487, 2296.988 680.712, 2296.172 679.750 C 2294.818 678.151, 2291.948 678, 2262.967 678 C 2235.990 678, 2231.059 677.776, 2230 676.500 C 2229.315 675.675, 2228.190 675, 2227.500 675 C 2226.810 675, 2225.685 675.675, 2225 676.500 M 1536.500 812.692 C 1474.874 816.774, 1432.658 833.858, 1405.476 865.715 C 1388.169 885.999, 1380.060 909.777, 1381.336 936.500 C 1382.561 962.155, 1391.782 983.147, 1410.170 1002.140 C 1438.667 1031.575, 1479.962 1046.024, 1544 1048.965 C 1597.150 1051.406, 1644.304 1044.609, 1675.740 1029.975 C 1693.413 1021.748, 1711.124 1007.634, 1722.003 993.107 C 1744.311 963.319, 1747.982 918.982, 1730.996 884.500 C 1712.805 847.571, 1674.457 824.128, 1619 816.034 C 1595.406 812.590, 1559.806 811.148, 1536.500 812.692 M 2396.628 1217.750 C 2395.657 1250.041, 2392.512 1299.388, 2390.350 1316.259 L 2389.740 1321.019 2439.620 1320.759 L 2489.500 1320.500 2490.180 1310.500 C 2490.553 1305, 2491.040 1298.139, 2491.262 1295.252 L 2491.664 1290.005 2468.582 1290.654 C 2455.887 1291.011, 2443.304 1290.974, 2440.619 1290.571 L 2435.738 1289.838 2436.411 1277.169 C 2437.940 1248.394, 2440.041 1211.939, 2440.643 1203.750 L 2441.287 1195 2419.299 1195 L 2397.312 1195 2396.628 1217.750 M 2642 1203.918 C 2642 1220.295, 2638.433 1289.629, 2636.350 1313.750 L 2635.724 1321 2654.862 1321 L 2674 1321 2674 1316.922 L 2674 1312.844 2677.912 1316.193 C 2683.817 1321.247, 2690.930 1323.473, 2701 1323.418 C 2717.946 1323.326, 2730.441 1316.342, 2738.614 1302.395 C 2745.397 1290.821, 2748.618 1271.973, 2746.114 1258.500 C 2743.009 1241.789, 2731.940 1229.731, 2715.744 1225.420 C 2709.953 1223.878, 2689.700 1223.536, 2683.910 1224.882 L 2680.321 1225.717 2680.714 1220.609 C 2680.930 1217.799, 2681.531 1211.675, 2682.050 1207 C 2682.570 1202.325, 2682.996 1197.713, 2682.997 1196.750 C 2683 1195.140, 2681.358 1195, 2662.500 1195 L 2642 1195 2642 1203.918 M 2558.417 1224.130 C 2547.738 1224.881, 2524.930 1228.626, 2523.872 1229.802 C 2523.158 1230.597, 2519.631 1254.969, 2520.157 1255.481 C 2520.346 1255.664, 2525.900 1254.249, 2532.500 1252.335 C 2544.570 1248.835, 2559.831 1246.988, 2565.309 1248.363 C 2568.587 1249.185, 2569.723 1252.543, 2567.540 1254.956 C 2565.762 1256.921, 2563.954 1257.477, 2544.735 1261.971 C 2537.714 1263.613, 2529.389 1266.173, 2526.235 1267.660 C 2518.611 1271.255, 2511.038 1279.090, 2508.619 1285.887 C 2503.490 1300.295, 2512.162 1317.245, 2526.973 1321.758 C 2533.269 1323.676, 2554.353 1324.021, 2557.503 1322.258 C 2558.761 1321.554, 2560.423 1317.533, 2562.621 1309.879 C 2564.411 1303.644, 2565.777 1298.444, 2565.657 1298.323 C 2565.536 1298.203, 2562.382 1298.628, 2558.648 1299.268 C 2550.673 1300.633, 2546.714 1299.249, 2546.203 1294.916 C 2545.764 1291.197, 2548.794 1289.060, 2559.670 1285.418 L 2569.282 1282.200 2568.614 1293.850 C 2568.247 1300.257, 2567.669 1308.987, 2567.330 1313.250 L 2566.712 1321 2586.225 1321 L 2605.738 1321 2606.358 1317.250 C 2606.699 1315.188, 2606.983 1309.479, 2606.989 1304.566 C 2606.995 1299.652, 2607.716 1284.944, 2608.590 1271.881 C 2610.046 1250.135, 2610.045 1247.667, 2608.582 1242.635 C 2604.382 1228.185, 2587.787 1222.064, 2558.417 1224.130 M 2682.524 1253.838 C 2678.745 1254.467, 2678.506 1254.724, 2677.716 1259 C 2676.521 1265.468, 2677.452 1280.850, 2679.303 1285.228 C 2683.794 1295.849, 2698.374 1295.479, 2703.923 1284.603 C 2707.119 1278.338, 2707.453 1267.505, 2704.626 1261.766 C 2701.334 1255.082, 2693.003 1252.094, 2682.524 1253.838" stroke="none" fill="#000000" fill-rule="evenodd"/><path d="M 1509.500 642.038 C 1405.036 649.635, 1321.221 682.077, 1263.381 737.300 C 1223.827 775.064, 1199.463 822.770, 1191.013 879 C 1184.991 919.073, 1186.488 961.983, 1195.182 998.500 C 1208.280 1053.518, 1236.631 1097.759, 1282 1133.976 C 1342.272 1182.090, 1420.341 1208.098, 1522.500 1214.096 C 1544.749 1215.402, 1598.949 1214.804, 1618.500 1213.036 C 1699.670 1205.695, 1761.852 1186.423, 1812.315 1152.965 C 1873.542 1112.371, 1913.494 1056.041, 1927.545 990.500 C 1931.805 970.628, 1933.048 959.588, 1933.682 935.995 C 1936.738 822.214, 1888.915 740.924, 1787.824 688.065 C 1741.372 663.776, 1691.374 650.114, 1624.500 643.437 C 1605.828 641.572, 1528.789 640.635, 1509.500 642.038 M 880.595 671.314 C 878.052 673.857, 878 674.187, 878.001 687.705 C 878.002 703.783, 879.372 744.569, 881.504 792 C 886.298 898.655, 886.236 928.982, 880.955 1062 C 879.853 1089.775, 878.665 1131.476, 878.317 1154.669 L 877.683 1196.837 880.914 1200.068 L 884.145 1203.299 910.323 1202.678 C 924.720 1202.336, 947.503 1201.589, 960.951 1201.017 C 977.392 1200.319, 992.952 1200.300, 1008.451 1200.961 C 1021.128 1201.502, 1043.429 1202.458, 1058.009 1203.086 C 1081.589 1204.102, 1084.936 1204.053, 1088.295 1202.650 C 1095.477 1199.649, 1095.449 1199.912, 1094.112 1147 C 1093.465 1121.425, 1092.065 1078.287, 1090.999 1051.139 C 1086.310 931.671, 1086.241 897.068, 1090.498 802 C 1093.130 743.230, 1093.997 716.791, 1093.998 695.205 C 1094 673.927, 1093.998 673.907, 1091.545 671.455 C 1088.454 668.363, 1086.815 668.342, 1031.586 670.667 C 995.641 672.180, 986.593 672.235, 957.086 671.117 C 938.614 670.418, 914.430 669.592, 903.345 669.282 L 883.191 668.718 880.595 671.314 M 2225 676.500 C 2223.910 677.813, 2212.549 678, 2133.878 678 L 2044 678 2044 935.500 L 2044 1193 2125.836 1193 C 2170.847 1193, 2223.945 1192.702, 2243.833 1192.338 L 2279.993 1191.676 2280.246 1056.194 L 2280.500 920.712 2360.128 998.817 L 2439.756 1076.922 2477.390 1134.299 L 2515.024 1191.677 2548.175 1192.339 C 2566.408 1192.702, 2618.603 1193, 2664.163 1193 L 2747 1193 2747 935.500 L 2747 678 2635.003 678 L 2523.007 678 2522.753 820.560 L 2522.500 963.119 2465 906.725 L 2407.500 850.330 2352.577 765.915 C 2322.370 719.487, 2296.988 680.712, 2296.172 679.750 C 2294.818 678.151, 2291.948 678, 2262.967 678 C 2235.990 678, 2231.059 677.776, 2230 676.500 C 2229.315 675.675, 2228.190 675, 2227.500 675 C 2226.810 675, 2225.685 675.675, 2225 676.500 M 1536.500 812.692 C 1474.874 816.774, 1432.658 833.858, 1405.476 865.715 C 1388.169 885.999, 1380.060 909.777, 1381.336 936.500 C 1382.561 962.155, 1391.782 983.147, 1410.170 1002.140 C 1438.667 1031.575, 1479.962 1046.024, 1544 1048.965 C 1597.150 1051.406, 1644.304 1044.609, 1675.740 1029.975 C 1693.413 1021.748, 1711.124 1007.634, 1722.003 993.107 C 1744.311 963.319, 1747.982 918.982, 1730.996 884.500 C 1712.805 847.571, 1674.457 824.128, 1619 816.034 C 1595.406 812.590, 1559.806 811.148, 1536.500 812.692 M 2396.628 1217.750 C 2395.657 1250.041, 2392.512 1299.388, 2390.350 1316.259 L 2389.740 1321.019 2439.620 1320.759 L 2489.500 1320.500 2490.180 1310.500 C 2490.553 1305, 2491.040 1298.139, 2491.262 1295.252 L 2491.664 1290.005 2468.582 1290.654 C 2455.887 1291.011, 2443.304 1290.974, 2440.619 1290.571 L 2435.738 1289.838 2436.411 1277.169 C 2437.940 1248.394, 2440.041 1211.939, 2440.643 1203.750 L 2441.287 1195 2419.299 1195 L 2397.312 1195 2396.628 1217.750 M 2642 1203.918 C 2642 1220.295, 2638.433 1289.629, 2636.350 1313.750 L 2635.724 1321 2654.862 1321 L 2674 1321 2674 1316.922 L 2674 1312.844 2677.912 1316.193 C 2683.817 1321.247, 2690.930 1323.473, 2701 1323.418 C 2717.946 1323.326, 2730.441 1316.342, 2738.614 1302.395 C 2745.397 1290.821, 2748.618 1271.973, 2746.114 1258.500 C 2743.009 1241.789, 2731.940 1229.731, 2715.744 1225.420 C 2709.953 1223.878, 2689.700 1223.536, 2683.910 1224.882 L 2680.321 1225.717 2680.714 1220.609 C 2680.930 1217.799, 2681.531 1211.675, 2682.050 1207 C 2682.570 1202.325, 2682.996 1197.713, 2682.997 1196.750 C 2683 1195.140, 2681.358 1195, 2662.500 1195 L 2642 1195 2642 1203.918 M 2558.417 1224.130 C 2547.738 1224.881, 2524.930 1228.626, 2523.872 1229.802 C 2523.158 1230.597, 2519.631 1254.969, 2520.157 1255.481 C 2520.346 1255.664, 2525.900 1254.249, 2532.500 1252.335 C 2544.570 1248.835, 2559.831 1246.988, 2565.309 1248.363 C 2568.587 1249.185, 2569.723 1252.543, 2567.540 1254.956 C 2565.762 1256.921, 2563.954 1257.477, 2544.735 1261.971 C 2537.714 1263.613, 2529.389 1266.173, 2526.235 1267.660 C 2518.611 1271.255, 2511.038 1279.090, 2508.619 1285.887 C 2503.490 1300.295, 2512.162 1317.245, 2526.973 1321.758 C 2533.269 1323.676, 2554.353 1324.021, 2557.503 1322.258 C 2558.761 1321.554, 2560.423 1317.533, 2562.621 1309.879 C 2564.411 1303.644, 2565.777 1298.444, 2565.657 1298.323 C 2565.536 1298.203, 2562.382 1298.628, 2558.648 1299.268 C 2550.673 1300.633, 2546.714 1299.249, 2546.203 1294.916 C 2545.764 1291.197, 2548.794 1289.060, 2559.670 1285.418 L 2569.282 1282.200 2568.614 1293.850 C 2568.247 1300.257, 2567.669 1308.987, 2567.330 1313.250 L 2566.712 1321 2586.225 1321 L 2605.738 1321 2606.358 1317.250 C 2606.699 1315.188, 2606.983 1309.479, 2606.989 1304.566 C 2606.995 1299.652, 2607.716 1284.944, 2608.590 1271.881 C 2610.046 1250.135, 2610.045 1247.667, 2608.582 1242.635 C 2604.382 1228.185, 2587.787 1222.064, 2558.417 1224.130 M 2682.524 1253.838 C 2678.745 1254.467, 2678.506 1254.724, 2677.716 1259 C 2676.521 1265.468, 2677.452 1280.850, 2679.303 1285.228 C 2683.794 1295.849, 2698.374 1295.479, 2703.923 1284.603 C 2707.119 1278.338, 2707.453 1267.505, 2704.626 1261.766 C 2701.334 1255.082, 2693.003 1252.094, 2682.524 1253.838" stroke="none" fill="#000000" fill-rule="evenodd"/><path d="M 1509.500 642.038 C 1405.036 649.635, 1321.221 682.077, 1263.381 737.300 C 1223.827 775.064, 1199.463 822.770, 1191.013 879 C 1184.991 919.073, 1186.488 961.983, 1195.182 998.500 C 1208.280 1053.518, 1236.631 1097.759, 1282 1133.976 C 1342.272 1182.090, 1420.341 1208.098, 1522.500 1214.096 C 1544.749 1215.402, 1598.949 1214.804, 1618.500 1213.036 C 1699.670 1205.695, 1761.852 1186.423, 1812.315 1152.965 C 1873.542 1112.371, 1913.494 1056.041, 1927.545 990.500 C 1931.805 970.628, 1933.048 959.588, 1933.682 935.995 C 1936.738 822.214, 1888.915 740.924, 1787.824 688.065 C 1741.372 663.776, 1691.374 650.114, 1624.500 643.437 C 1605.828 641.572, 1528.789 640.635, 1509.500 642.038 M 880.595 671.314 C 878.052 673.857, 878 674.187, 878.001 687.705 C 878.002 703.783, 879.372 744.569, 881.504 792 C 886.298 898.655, 886.236 928.982, 880.955 1062 C 879.853 1089.775, 878.665 1131.476, 878.317 1154.669 L 877.683 1196.837 880.914 1200.068 L 884.145 1203.299 910.323 1202.678 C 924.720 1202.336, 947.503 1201.589, 960.951 1201.017 C 977.392 1200.319, 992.952 1200.300, 1008.451 1200.961 C 1021.128 1201.502, 1043.429 1202.458, 1058.009 1203.086 C 1081.589 1204.102, 1084.936 1204.053, 1088.295 1202.650 C 1095.477 1199.649, 1095.449 1199.912, 1094.112 1147 C 1093.465 1121.425, 1092.065 1078.287, 1090.999 1051.139 C 1086.310 931.671, 1086.241 897.068, 1090.498 802 C 1093.130 743.230, 1093.997 716.791, 1093.998 695.205 C 1094 673.927, 1093.998 673.907, 1091.545 671.455 C 1088.454 668.363, 1086.815 668.342, 1031.586 670.667 C 995.641 672.180, 986.593 672.235, 957.086 671.117 C 938.614 670.418, 914.430 669.592, 903.345 669.282 L 883.191 668.718 880.595 671.314 M 2225 676.500 C 2223.910 677.813, 2212.549 678, 2133.878 678 L 2044 678 2044 935.500 L 2044 1193 2125.836 1193 C 2170.847 1193, 2223.945 1192.702, 2243.833 1192.338 L 2279.993 1191.676 2280.246 1056.194 L 2280.500 920.712 2360.128 998.817 L 2439.756 1076.922 2477.390 1134.299 L 2515.024 1191.677 2548.175 1192.339 C 2566.408 1192.702, 2618.603 1193, 2664.163 1193 L 2747 1193 2747 935.500 L 2747 678 2635.003 678 L 2523.007 678 2522.753 820.560 L 2522.500 963.119 2465 906.725 L 2407.500 850.330 2352.577 765.915 C 2322.370 719.487, 2296.988 680.712, 2296.172 679.750 C 2294.818 678.151, 2291.948 678, 2262.967 678 C 2235.990 678, 2231.059 677.776, 2230 676.500 C 2229.315 675.675, 2228.190 675, 2227.500 675 C 2226.810 675, 2225.685 675.675, 2225 676.500 M 1536.500 812.692 C 1474.874 816.774, 1432.658 833.858, 1405.476 865.715 C 1388.169 885.999, 1380.060 909.777, 1381.336 936.500 C 1382.561 962.155, 1391.782 983.147, 1410.170 1002.140 C 1438.667 1031.575, 1479.962 1046.024, 1544 1048.965 C 1597.150 1051.406, 1644.304 1044.609, 1675.740 1029.975 C 1693.413 1021.748, 1711.124 1007.634, 1722.003 993.107 C 1744.311 963.319, 1747.982 918.982, 1730.996 884.500 C 1712.805 847.571, 1674.457 824.128, 1619 816.034 C 1595.406 812.590, 1559.806 811.148, 1536.500 812.692 M 2396.628 1217.750 C 2395.657 1250.041, 2392.512 1299.388, 2390.350 1316.259 L 2389.740 1321.019 2439.620 1320.759 L 2489.500 1320.500 2490.180 1310.500 C 2490.553 1305, 2491.040 1298.139, 2491.262 1295.252 L 2491.664 1290.005 2468.582 1290.654 C 2455.887 1291.011, 2443.304 1290.974, 2440.619 1290.571 L 2435.738 1289.838 2436.411 1277.169 C 2437.940 1248.394, 2440.041 1211.939, 2440.643 1203.750 L 2441.287 1195 2419.299 1195 L 2397.312 1195 2396.628 1217.750 M 2642 1203.918 C 2642 1220.295, 2638.433 1289.629, 2636.350 1313.750 L 2635.724 1321 2654.862 1321 L 2674 1321 2674 1316.922 L 2674 1312.844 2677.912 1316.193 C 2683.817 1321.247, 2690.930 1323.473, 2701 1323.418 C 2717.946 1323.326, 2730.441 1316.342, 2738.614 1302.395 C 2745.397 1290.821, 2748.618 1271.973, 2746.114 1258.500 C 2743.009 1241.789, 2731.940 1229.731, 2715.744 1225.420 C 2709.953 1223.878, 2689.700 1223.536, 2683.910 1224.882 L 2680.321 1225.717 2680.714 1220.609 C 2680.930 1217.799, 2681.531 1211.675, 2682.050 1207 C 2682.570 1202.325, 2682.996 1197.713, 2682.997 1196.750 C 2683 1195.140, 2681.358 1195, 2662.500 1195 L 2642 1195 2642 1203.918 M 2558.417 1224.130 C 2547.738 1224.881, 2524.930 1228.626, 2523.872 1229.802 C 2523.158 1230.597, 2519.631 1254.969, 2520.157 1255.481 C 2520.346 1255.664, 2525.900 1254.249, 2532.500 1252.335 C 2544.570 1248.835, 2559.831 1246.988, 2565.309 1248.363 C 2568.587 1249.185, 2569.723 1252.543, 2567.540 1254.956 C 2565.762 1256.921, 2563.954 1257.477, 2544.735 1261.971 C 2537.714 1263.613, 2529.389 1266.173, 2526.235 1267.660 C 2518.611 1271.255, 2511.038 1279.090, 2508.619 1285.887 C 2503.490 1300.295, 2512.162 1317.245, 2526.973 1321.758 C 2533.269 1323.676, 2554.353 1324.021, 2557.503 1322.258 C 2558.761 1321.554, 2560.423 1317.533, 2562.621 1309.879 C 2564.411 1303.644, 2565.777 1298.444, 2565.657 1298.323 C 2565.536 1298.203, 2562.382 1298.628, 2558.648 1299.268 C 2550.673 1300.633, 2546.714 1299.249, 2546.203 1294.916 C 2545.764 1291.197, 2548.794 1289.060, 2559.670 1285.418 L 2569.282 1282.200 2568.614 1293.850 C 2568.247 1300.257, 2567.669 1308.987, 2567.330 1313.250 L 2566.712 1321 2586.225 1321 L 2605.738 1321 2606.358 1317.250 C 2606.699 1315.188, 2606.983 1309.479, 2606.989 1304.566 C 2606.995 1299.652, 2607.716 1284.944, 2608.590 1271.881 C 2610.046 1250.135, 2610.045 1247.667, 2608.582 1242.635 C 2604.382 1228.185, 2587.787 1222.064, 2558.417 1224.130 M 2682.524 1253.838 C 2678.745 1254.467, 2678.506 1254.724, 2677.716 1259 C 2676.521 1265.468, 2677.452 1280.850, 2679.303 1285.228 C 2683.794 1295.849, 2698.374 1295.479, 2703.923 1284.603 C 2707.119 1278.338, 2707.453 1267.505, 2704.626 1261.766 C 2701.334 1255.082, 2693.003 1252.094, 2682.524 1253.838" stroke="none" fill="#000000" fill-rule="evenodd"/><path d="M 406 447.592 C 404.075 447.806, 397.550 448.476, 391.500 449.081 C 285.517 459.686, 183.832 515.923, 115.903 601.500 C 41.687 694.998, 12.063 818.347, 35.571 936 C 55.027 1033.381, 110.444 1121.811, 189.317 1181.339 C 248.214 1225.790, 311.463 1251.430, 387.500 1261.678 C 406.195 1264.197, 465.805 1264.197, 484.500 1261.678 C 537.375 1254.551, 577.371 1242.190, 623.286 1218.786 C 631.968 1214.360, 639.393 1211.060, 639.786 1211.454 C 640.179 1211.847, 640.467 1221.130, 640.426 1232.084 L 640.353 1252 1437.676 1252 L 2235 1252 2235.024 1256.250 C 2235.145 1277.123, 2253.314 1298.679, 2275.703 1304.511 C 2283.041 1306.422, 2297.959 1306.422, 2305.297 1304.511 C 2324.174 1299.594, 2340.755 1283.048, 2344.921 1264.972 C 2345.487 1262.512, 2345.951 1256.900, 2345.951 1252.500 C 2345.951 1242.686, 2344.807 1237.484, 2340.787 1229.028 C 2336.936 1220.925, 2325.842 1209.468, 2318.007 1205.501 C 2300.833 1196.806, 2280.281 1196.743, 2263.329 1205.333 C 2256.416 1208.836, 2246.798 1217.905, 2242.346 1225.119 L 2238.716 1231 1449.211 1231 L 659.706 1231 660.371 1219.250 C 660.736 1212.787, 661.305 1204.953, 661.636 1201.840 L 662.238 1196.180 670.369 1190.412 C 756.989 1128.967, 815.910 1038.697, 836.429 936 C 842.442 905.907, 843.450 894.350, 843.450 855.500 C 843.450 816.650, 842.442 805.093, 836.429 775 C 811.869 652.075, 731.309 546.277, 619.671 490.335 C 576.015 468.459, 535.184 456.055, 485 449.425 C 473.210 447.868, 415.563 446.530, 406 447.592 M 419 579.098 C 399.336 582.938, 383 603.153, 383 623.644 L 383 627.016 322.923 626.758 L 262.847 626.500 261.077 621.500 C 257.543 611.516, 253.700 605.476, 246.112 597.980 C 237.321 589.295, 231.246 585.748, 220.415 582.978 C 210.614 580.472, 202.386 580.472, 192.585 582.978 C 181.726 585.755, 175.679 589.295, 166.766 598.093 C 160.904 603.878, 158.179 607.522, 155.510 613.142 C 147.171 630.701, 147.113 648.177, 155.337 665.495 C 161.498 678.468, 175.709 691.126, 188.247 694.811 L 193.997 696.500 193.999 752.603 L 194 808.706 189.250 808.253 C 167.264 806.155, 145.291 823.981, 141.762 846.779 C 137.467 874.531, 160.881 900.564, 188.583 898.838 L 194.003 898.500 193.988 953.500 L 193.972 1008.500 188.258 1010.316 C 169.977 1016.126, 154.739 1033.571, 150.511 1053.529 C 147.735 1066.638, 149.325 1078.835, 155.510 1091.858 C 158.179 1097.478, 160.904 1101.122, 166.766 1106.907 C 175.679 1115.705, 181.726 1119.245, 192.585 1122.022 C 219.328 1128.861, 245.797 1116.128, 258.203 1090.456 L 261.565 1083.500 322.135 1083.242 L 382.705 1082.985 383.332 1090.400 C 386.131 1123.515, 420.216 1142.593, 449.798 1127.602 C 455.984 1124.467, 465.459 1115.001, 468.586 1108.831 C 471.739 1102.607, 474 1093.819, 474 1087.782 L 474 1082.984 532.710 1083.242 L 591.420 1083.500 595.106 1091.080 C 599.485 1100.086, 608.031 1109.743, 616.458 1115.206 C 621.703 1118.606, 629.474 1121.544, 638.250 1123.443 L 641 1124.038 641 1164.519 C 641 1186.784, 641.337 1204.974, 641.750 1204.943 C 642.163 1204.911, 646.775 1202.966, 652 1200.620 L 661.500 1196.355 662 1159.126 L 662.500 1121.896 668.108 1119.618 C 689.095 1111.090, 704 1088.616, 704 1065.500 C 704 1040.991, 687.304 1017.832, 663.750 1009.669 C 662.112 1009.102, 662 1005.545, 662 954.031 L 662 899 667.290 899 C 679.062 899, 690.951 894.006, 699.478 885.478 C 717.403 867.554, 717.407 839.624, 699.487 821.704 C 690.716 812.934, 678.789 808, 666.355 808 L 661.983 808 662.242 751.948 L 662.500 695.897 668.024 693.652 C 680.904 688.417, 691.166 678.622, 697.518 665.500 C 706.082 647.807, 706.210 631.879, 697.931 614.144 C 694.788 607.410, 692.523 604.300, 686.265 598.124 C 677.321 589.296, 671.282 585.758, 660.415 582.978 C 650.614 580.472, 642.386 580.472, 632.585 582.978 C 621.754 585.748, 615.679 589.295, 606.888 597.980 C 599.247 605.528, 595.343 611.701, 592.010 621.500 L 590.309 626.500 532.155 626.758 L 474 627.016 474 622.718 C 474 611.881, 468.854 600.072, 460.487 591.704 C 449.407 580.625, 434.452 576.080, 419 579.098 M 261.764 656.250 C 256.959 670.045, 248.010 681.782, 236.723 689.093 C 231.061 692.760, 220.381 697, 216.806 697 C 215.086 697, 215 699.715, 215 754.155 L 215 811.310 217.201 809.405 C 222.999 804.386, 382.543 654.506, 382.833 653.805 C 383.017 653.362, 356.106 653, 323.031 653 L 262.896 653 261.764 656.250 M 475.167 653.790 C 475.657 654.952, 638.999 816.441, 640.080 816.833 C 640.633 817.034, 641 793.414, 641 757.602 L 641 698.038 638.250 697.443 C 623.205 694.187, 613.987 689.121, 604.593 678.945 C 599.301 673.213, 595.852 667.257, 591.163 655.750 L 590.043 653 532.438 653 C 500.755 653, 474.983 653.355, 475.167 653.790 M 456.411 659.102 C 453.732 662.066, 446.086 665.763, 438.735 667.648 C 430.395 669.787, 420.325 668.994, 411.620 665.511 C 407.957 664.046, 404.554 662.994, 404.058 663.173 C 403.561 663.353, 364.582 699.725, 317.437 744 C 270.292 788.275, 230.366 825.649, 228.712 827.054 L 225.706 829.609 228.571 836.554 C 231.069 842.613, 231.435 844.777, 231.435 853.500 C 231.435 862.200, 231.067 864.394, 228.599 870.375 L 225.763 877.249 234.631 886.043 C 239.509 890.880, 279.658 929.478, 323.851 971.817 L 404.202 1048.797 409.457 1046.391 C 419.787 1041.662, 432.917 1040.942, 443.130 1044.546 L 447.392 1046.050 452.946 1040.674 C 456.001 1037.718, 494.500 1001.868, 538.500 961.007 C 582.500 920.147, 620.690 884.585, 623.367 881.979 L 628.234 877.242 625.446 870.371 C 621.925 861.692, 621.462 848.910, 624.327 839.500 L 626.154 833.500 578.827 786.504 C 552.797 760.656, 514.190 722.313, 493.034 701.298 L 454.568 663.089 456.954 660.549 C 458.267 659.151, 459.112 657.778, 458.831 657.498 C 458.551 657.217, 457.461 657.939, 456.411 659.102 M 554 974.784 C 506.425 1019.066, 467.349 1055.683, 467.164 1056.156 C 466.978 1056.631, 494.203 1056.900, 528.084 1056.758 L 589.341 1056.500 591.501 1049.500 C 594.975 1038.240, 598.682 1032.089, 606.888 1023.960 C 615.436 1015.493, 623.987 1010.693, 634.250 1008.600 L 640.500 1007.325 640.765 978.591 C 640.911 962.788, 640.911 937.351, 640.765 922.065 L 640.500 894.271 554 974.784 M 215 952.125 L 215 1007.657 220.136 1008.842 C 235.297 1012.342, 250.731 1024.908, 257.579 1039.329 C 259.565 1043.511, 261.739 1049.085, 262.410 1051.716 L 263.630 1056.500 322.401 1056.758 C 359.053 1056.919, 381.046 1056.660, 380.836 1056.070 C 380.569 1055.317, 328.262 1005.011, 218.750 900.184 L 215 896.594 215 952.125" stroke="none" fill="#7c1c1c" fill-rule="evenodd"/></svg>