<svg xmlns="http://www.w3.org/2000/svg" width="203" height="203" viewBox="0 0 203 203" version="1.1"><path d="M 94.784 14.738 C 97.689 14.941, 102.189 14.939, 104.784 14.734 C 107.378 14.528, 105 14.363, 99.500 14.365 C 94 14.368, 91.878 14.536, 94.784 14.738 M 85.269 15.693 C 86.242 15.947, 87.592 15.930, 88.269 15.656 C 88.946 15.382, 88.150 15.175, 86.500 15.195 C 84.850 15.215, 84.296 15.439, 85.269 15.693 M 111.250 15.689 C 112.213 15.941, 113.787 15.941, 114.750 15.689 C 115.713 15.438, 114.925 15.232, 113 15.232 C 111.075 15.232, 110.287 15.438, 111.250 15.689 M 76.140 17.147 C 74.293 17.679, 72.958 18.291, 73.175 18.508 C 73.392 18.725, 75.804 18.290, 78.535 17.541 C 81.266 16.792, 82.600 16.179, 81.500 16.180 C 80.400 16.180, 77.988 16.615, 76.140 17.147 M 117.813 16.683 C 118.534 16.972, 119.397 16.936, 119.729 16.604 C 120.061 16.272, 119.471 16.036, 118.417 16.079 C 117.252 16.127, 117.015 16.364, 117.813 16.683 M 121.813 17.683 C 122.534 17.972, 123.397 17.936, 123.729 17.604 C 124.061 17.272, 123.471 17.036, 122.417 17.079 C 121.252 17.127, 121.015 17.364, 121.813 17.683 M 60.264 23.894 C 50.908 28.860, 43.182 34.865, 36.696 42.212 C 31.023 48.638, 22.040 62.606, 22.041 65 C 22.042 65.825, 23.427 63.800, 25.118 60.500 C 28.892 53.139, 34.144 46.095, 40.774 39.500 C 48.264 32.050, 51.090 29.964, 60.726 24.772 C 65.552 22.171, 69.050 20.045, 68.500 20.048 C 67.950 20.050, 64.244 21.781, 60.264 23.894 M 138.500 24.178 C 145.917 27.988, 150.532 31.460, 159.419 39.916 C 165.292 45.504, 165.746 45.789, 162.419 41.800 C 157.265 35.618, 147.179 27.624, 139.898 23.949 C 136.686 22.327, 133.707 21.022, 133.279 21.048 C 132.850 21.075, 135.200 22.483, 138.500 24.178 M 96.091 41.090 C 93.586 42.092, 91.083 44.771, 91.037 46.500 C 91.022 47.050, 92.020 46.301, 93.255 44.836 C 94.490 43.371, 96.453 41.897, 97.618 41.561 C 100.203 40.814, 105.052 42.500, 106.750 44.736 C 107.482 45.700, 108 45.883, 108 45.176 C 108 43.734, 102.126 39.983, 100 40.067 C 99.175 40.100, 97.416 40.560, 96.091 41.090 M 49.420 43.145 C 47.165 44.239, 43.976 48.986, 44.039 51.154 C 44.061 51.894, 44.690 51.095, 45.437 49.378 C 48.225 42.973, 56.128 40.969, 62.346 45.092 L 65.500 47.183 62.694 44.592 C 59.678 41.806, 53.555 41.138, 49.420 43.145 M 137.826 43.712 C 136.355 44.625, 134.677 46.413, 134.097 47.686 C 133.081 49.917, 132.614 50, 121.095 50 C 110.556 50, 109.093 49.794, 108.689 48.250 C 108.345 46.933, 108.203 47.057, 108.116 48.750 C 108.001 50.973, 108.153 51, 120.933 51 C 132.930 51, 133.911 50.857, 134.492 49.026 C 136.966 41.230, 149.954 41.001, 153.883 48.684 C 156.447 53.698, 153.870 60.954, 148.974 62.508 C 147.143 63.089, 147 64.070, 147 76.067 C 147 88.808, 147.033 89, 149.250 89.015 C 151.992 89.034, 153.115 89.767, 155.308 92.973 C 156.239 94.332, 157 94.874, 157 94.177 C 157 92.175, 152.300 88, 150.045 88 C 148.099 88, 148 87.422, 148 76.067 C 148 64.880, 148.129 64.094, 150.069 63.478 C 152.748 62.628, 155.991 57.278, 155.996 53.700 C 156.001 50.139, 153.652 45.570, 150.783 43.561 C 147.885 41.530, 141.217 41.608, 137.826 43.712 M 168.437 50.329 C 169.977 52.348, 171.440 54, 171.687 54 C 172.381 54, 168.052 48.150, 166.772 47.359 C 166.148 46.973, 166.897 48.310, 168.437 50.329 M 72.292 50.742 C 76.027 50.935, 81.877 50.934, 85.292 50.739 C 88.706 50.545, 85.650 50.387, 78.500 50.389 C 71.350 50.390, 68.556 50.550, 72.292 50.742 M 44.079 55.583 C 44.127 56.748, 44.364 56.985, 44.683 56.188 C 44.972 55.466, 44.936 54.603, 44.604 54.271 C 44.272 53.939, 44.036 54.529, 44.079 55.583 M 65.998 55.750 C 65.997 56.163, 71.510 56.381, 78.248 56.236 L 90.500 55.973 86.500 59.646 C 84.300 61.667, 77.550 68.085, 71.500 73.910 C 55.394 89.416, 57 89.171, 57 76.122 C 57 67.093, 57.272 65, 58.444 65 C 59.239 65, 61.151 63.897, 62.694 62.550 L 65.500 60.099 60.796 62.300 L 56.091 64.500 56.046 76.833 C 56.019 83.965, 56.389 89.026, 56.923 88.833 C 58.480 88.271, 91 56.827, 91 55.884 C 91 55.398, 85.375 55, 78.500 55 C 71.625 55, 65.999 55.337, 65.998 55.750 M 108 55.896 C 108 56.972, 138.669 86.344, 140.335 86.863 C 141.486 87.222, 120.174 66.532, 112.578 59.916 L 108.655 56.500 120.578 55.951 L 132.500 55.402 120.250 55.201 C 113.513 55.091, 108 55.403, 108 55.896 M 172.007 55.193 C 172.003 55.574, 172.873 57.374, 173.941 59.193 C 175.008 61.012, 177.286 66.550, 179.002 71.500 C 180.759 76.567, 181.841 78.777, 181.479 76.557 C 180.699 71.768, 176.707 61.602, 173.996 57.500 C 172.905 55.850, 172.010 54.812, 172.007 55.193 M 133.063 57.027 C 132.966 59.366, 135.580 62.555, 139.479 64.855 C 142.295 66.516, 143 66.639, 143 65.466 C 143 64.660, 142.213 63.990, 141.250 63.978 C 138.818 63.947, 135.279 60.985, 134.108 58 C 133.568 56.625, 133.098 56.187, 133.063 57.027 M 45.911 59.834 C 46.578 61.080, 48.234 62.605, 49.592 63.224 C 52.035 64.337, 52.058 64.469, 51.780 75.889 L 51.500 87.429 48.407 88.314 C 44.310 89.487, 41.602 94.065, 42.421 98.433 C 43.137 102.248, 45.361 104.560, 49.250 105.530 L 52 106.217 52 117.630 C 52 128.618, 51.913 129.082, 49.665 130.107 C 47.225 131.219, 43.984 135.841, 44.023 138.154 C 44.035 138.894, 44.802 137.964, 45.727 136.086 C 46.652 134.209, 48.664 131.959, 50.198 131.086 L 52.987 129.500 52.994 117.408 L 53 105.317 49.165 104.167 C 45.258 102.997, 43 99.971, 43 95.905 C 43 93.243, 47.698 89, 50.646 89 C 52.997 89, 53 88.985, 53 76 C 53 68.720, 52.594 63, 52.077 63 C 51.569 63, 49.701 61.778, 47.926 60.284 C 44.943 57.774, 44.791 57.740, 45.911 59.834 M 92.833 58.750 C 92.650 59.163, 84.963 66.661, 75.750 75.412 C 62.091 88.388, 59.022 91.802, 59.118 93.912 L 59.237 96.500 59.868 93.951 C 60.220 92.530, 65.101 86.999, 70.899 81.451 C 76.618 75.978, 84.142 68.721, 87.620 65.323 C 91.097 61.926, 94.968 58.950, 96.221 58.710 C 98.270 58.316, 98.231 58.259, 95.833 58.136 C 94.367 58.061, 93.017 58.337, 92.833 58.750 M 99.509 58.985 C 99.137 59.587, 99.990 59.755, 101.700 59.419 C 104.867 58.796, 105.077 58.964, 124.019 77.331 C 130.355 83.474, 136.880 89.584, 138.519 90.909 C 140.159 92.234, 133.400 85.389, 123.500 75.697 C 109.345 61.840, 104.925 58.067, 102.809 58.038 C 101.329 58.017, 99.844 58.443, 99.509 58.985 M 19.612 71.624 C 18.726 74.227, 18.033 76.839, 18.073 77.428 C 18.113 78.018, 19.012 76.061, 20.070 73.080 C 21.128 70.099, 21.821 67.487, 21.609 67.276 C 21.398 67.065, 20.499 69.021, 19.612 71.624 M 142.195 74.500 C 142.215 76.150, 142.439 76.704, 142.693 75.731 C 142.947 74.758, 142.930 73.408, 142.656 72.731 C 142.382 72.054, 142.175 72.850, 142.195 74.500 M 17.158 82 C 17.158 83.375, 17.385 83.938, 17.662 83.250 C 17.940 82.563, 17.940 81.438, 17.662 80.750 C 17.385 80.063, 17.158 80.625, 17.158 82 M 182.782 92.020 C 183.574 110.560, 179.213 126.928, 169.647 141.318 C 165.497 147.563, 153.606 160.070, 149.971 162.016 C 148.114 163.009, 148 162.732, 148 157.204 C 148 152.084, 148.296 151.179, 150.331 150.091 C 157.107 146.464, 157.750 136.768, 151.571 131.394 L 148 128.288 148 117.345 L 148 106.402 151.499 105.136 C 155.091 103.838, 157.506 100.814, 156.644 98.695 C 156.356 97.986, 156.126 98.149, 156.079 99.095 C 155.973 101.237, 153.116 103.691, 149.750 104.530 L 147 105.217 147 116.991 L 147 128.765 151 132.765 C 154.135 135.900, 155 137.518, 155 140.247 C 155 144.071, 152.110 148.513, 148.974 149.508 C 147.259 150.053, 147 151.044, 147 157.067 C 147 162.234, 147.345 164, 148.355 164 C 150.420 164, 162.293 152.709, 167.585 145.715 C 173.129 138.385, 179.302 125.917, 181.553 117.500 C 183.498 110.226, 184.466 91.197, 183.206 85 C 182.530 81.681, 182.419 83.523, 182.782 92.020 M 16.195 87.500 C 16.215 89.150, 16.439 89.704, 16.693 88.731 C 16.947 87.758, 16.930 86.408, 16.656 85.731 C 16.382 85.054, 16.175 85.850, 16.195 87.500 M 141.697 86.393 C 141.288 87.434, 141.189 88.522, 141.476 88.810 C 142.389 89.722, 143.191 88.227, 142.809 86.328 C 142.459 84.588, 142.405 84.591, 141.697 86.393 M 139.431 97.695 C 139.777 101.686, 139.521 102.140, 134.147 107.058 C 131.041 109.901, 123.295 117.239, 116.933 123.364 L 105.367 134.500 99.589 134.420 L 93.812 134.339 78.311 119.420 C 69.786 111.214, 62.178 104.140, 61.405 103.700 C 60.632 103.260, 59.971 101.460, 59.937 99.700 C 59.875 96.574, 59.850 96.557, 58.885 98.977 C 57.813 101.663, 57.594 101.422, 84.025 126.500 L 93.511 135.500 99.638 135.533 L 105.766 135.566 123.346 118.533 L 140.926 101.500 139.996 97.500 L 139.066 93.500 139.431 97.695 M 125.232 120.652 C 115.754 129.740, 108 137.585, 108 138.087 C 108 138.589, 113.581 139, 120.402 139 L 132.804 139 133.805 136.129 C 135.038 132.594, 138.759 129, 141.189 129 C 142.253 129, 142.994 128.278, 142.985 127.250 C 142.976 126.262, 142.650 125.935, 142.235 126.500 C 141.831 127.050, 140.161 128.186, 138.525 129.025 C 136.888 129.863, 134.863 131.888, 134.025 133.525 C 133.186 135.161, 132.050 136.823, 131.500 137.217 C 130.182 138.162, 111.009 137.595, 110.922 136.608 C 110.884 136.189, 115.263 131.718, 120.652 126.673 C 139.677 108.862, 143.459 105.126, 142.964 104.630 C 142.689 104.355, 134.709 111.565, 125.232 120.652 M 16.079 106.583 C 16.127 107.748, 16.364 107.985, 16.683 107.188 C 16.972 106.466, 16.936 105.603, 16.604 105.271 C 16.272 104.939, 16.036 105.529, 16.079 106.583 M 56 116.808 C 56 128.709, 56.015 128.787, 58.470 129.403 C 59.829 129.744, 62.154 131.255, 63.637 132.762 C 66.255 135.421, 66.290 135.428, 64.841 133 C 64.021 131.625, 61.931 129.825, 60.197 129 L 57.043 127.500 57.022 117.161 L 57 106.822 60.250 109.551 C 65.102 113.625, 88.966 136.423, 88.983 137 C 88.992 137.275, 84.214 137.654, 78.366 137.843 C 70.293 138.103, 67.506 137.862, 66.790 136.843 C 66.035 135.767, 65.929 135.799, 66.256 137 C 66.584 138.208, 69.028 138.555, 78.832 138.781 C 86.098 138.948, 91 138.676, 91 138.106 C 91 137.071, 58.627 105.716, 56.992 105.167 C 56.373 104.959, 56 109.332, 56 116.808 M 142.158 110 C 142.158 111.375, 142.385 111.938, 142.662 111.250 C 142.940 110.563, 142.940 109.438, 142.662 108.750 C 142.385 108.063, 142.158 108.625, 142.158 110 M 17.079 112.583 C 17.127 113.748, 17.364 113.985, 17.683 113.188 C 17.972 112.466, 17.936 111.603, 17.604 111.271 C 17.272 110.939, 17.036 111.529, 17.079 112.583 M 18.079 116.583 C 18.127 117.748, 18.364 117.985, 18.683 117.188 C 18.972 116.466, 18.936 115.603, 18.604 115.271 C 18.272 114.939, 18.036 115.529, 18.079 116.583 M 19.042 119.560 C 18.973 121.310, 23.756 132.909, 26.426 137.464 C 29.542 142.780, 37.319 152.452, 41.971 156.794 C 55.471 169.395, 75.627 178.102, 94 179.268 C 98.895 179.578, 101.227 179.474, 99.500 179.022 C 97.850 178.590, 94.434 178.183, 91.910 178.118 C 89.385 178.053, 83.943 177.136, 79.817 176.081 C 53.541 169.361, 32.197 151.029, 22.425 126.786 C 20.587 122.229, 19.065 118.977, 19.042 119.560 M 44.063 143.144 C 43.959 145.860, 49.357 150.789, 53.232 151.516 C 57.632 152.341, 63.139 149.978, 65.024 146.455 C 66.305 144.061, 66.632 144, 78.156 144 L 89.973 144 91.402 147.420 C 93.076 151.425, 95.571 153, 100.246 153 C 104.095 153, 107.657 150.216, 108.596 146.472 C 109.212 144.018, 109.301 144, 120.993 144 C 132.425 144, 132.818 144.073, 134.394 146.479 C 135.288 147.843, 137.345 149.644, 138.966 150.482 C 141.757 151.926, 141.931 152.388, 142.258 159.253 L 142.603 166.500 142.801 158.797 L 143 151.094 139.645 149.502 C 137.799 148.626, 135.698 146.805, 134.976 145.455 C 133.686 143.044, 133.431 143, 120.831 143 C 108.572 143, 108 143.091, 108 145.045 C 108 148.288, 103.595 152.005, 99.795 151.968 C 95.681 151.928, 93.305 150.175, 91.898 146.137 L 90.804 143 78.758 143 L 66.712 143 63.557 146.649 C 60.816 149.820, 59.797 150.312, 55.782 150.399 C 50.908 150.506, 46.758 147.861, 44.954 143.500 C 44.313 141.951, 44.112 141.871, 44.063 143.144 M 134.500 170.893 C 127.052 174.300, 117.691 176.936, 109.082 178.049 L 102.500 178.900 110 178.537 C 114.639 178.312, 120.552 177.146, 125.500 175.479 C 133.464 172.796, 141 169.393, 141 168.480 C 141 167.875, 141.521 167.681, 134.500 170.893" stroke="none" fill="#a37c7c" fill-rule="evenodd"/><path d="M 87 15.626 C 73.438 18.267, 56.398 25.591, 49 31.960 C 33.968 44.900, 26.750 54.667, 21.491 69.183 C 18.409 77.688, 16.003 90.227, 16.001 97.792 C 15.998 109.711, 21.909 128.907, 28.922 139.758 C 37.467 152.979, 50.804 164.410, 65.407 171.031 C 87.318 180.965, 113.719 180.749, 135.500 170.459 L 142.500 167.152 142.170 159.560 C 141.857 152.329, 141.703 151.898, 138.930 150.464 C 137.329 149.636, 135.288 147.843, 134.394 146.479 C 132.818 144.073, 132.425 144, 120.993 144 C 109.301 144, 109.212 144.018, 108.596 146.472 C 107.657 150.216, 104.095 153, 100.246 153 C 95.571 153, 93.076 151.425, 91.402 147.420 L 89.973 144 78.156 144 C 66.632 144, 66.305 144.061, 65.024 146.455 C 61.711 152.646, 52.018 153.372, 46.829 147.817 C 42.060 142.712, 43.639 132.852, 49.665 130.107 C 51.913 129.082, 52 128.618, 52 117.630 L 52 106.217 49.250 105.530 C 45.361 104.560, 43.137 102.248, 42.421 98.433 C 41.602 94.065, 44.310 89.487, 48.407 88.314 L 51.500 87.429 51.781 75.792 C 52.048 64.725, 51.959 64.122, 49.962 63.488 C 47.098 62.579, 44.008 57.220, 44.004 53.154 C 43.999 49.023, 46.548 44.527, 49.712 43.085 C 55.652 40.379, 63.900 42.959, 65.508 48.026 C 66.088 49.852, 67.068 50, 78.567 50 C 90.892 50, 91 49.980, 91 47.689 C 91 44.620, 94.186 41.338, 97.972 40.506 C 102.194 39.579, 107.162 42.582, 108.369 46.791 L 109.289 50 121.166 50 C 132.640 50, 133.079 49.921, 134.107 47.665 C 136.439 42.546, 145.982 40.198, 150.783 43.561 C 153.652 45.570, 156.001 50.139, 155.996 53.700 C 155.991 57.278, 152.748 62.628, 150.069 63.478 C 148.129 64.094, 148 64.880, 148 76.067 C 148 87.422, 148.099 88, 150.045 88 C 153.587 88, 157 92.395, 157 96.955 C 157 101.462, 154.693 104.537, 150.525 105.583 C 148.016 106.213, 148 106.285, 148 117.252 L 148 128.288 151.571 131.394 C 157.750 136.768, 157.107 146.464, 150.331 150.091 C 148.296 151.179, 148 152.084, 148 157.204 C 148 162.732, 148.114 163.009, 149.971 162.016 C 153.606 160.070, 165.497 147.563, 169.647 141.318 C 188.044 113.643, 187.105 74.423, 167.436 49 C 155.553 33.642, 140.127 22.906, 122.821 17.950 C 115.619 15.888, 93.144 14.430, 87 15.626 M 65.076 59.595 C 63.910 61.573, 61.615 63.696, 59.977 64.315 L 57 65.438 57 76.342 C 57 89.137, 55.405 89.405, 71.500 73.910 C 77.550 68.085, 84.300 61.685, 86.500 59.687 L 90.500 56.054 78.849 56.027 L 67.198 56 65.076 59.595 M 120.034 66.750 C 126.313 72.662, 133.699 79.612, 136.448 82.194 C 139.196 84.776, 141.654 86.680, 141.909 86.424 C 142.164 86.169, 142.426 81.644, 142.490 76.369 L 142.607 66.777 138.683 64.300 C 136.525 62.938, 134.265 60.513, 133.661 58.912 L 132.562 56 120.590 56 L 108.618 56 120.034 66.750 M 87.621 65.332 C 84.153 68.724, 76.520 76.079, 70.658 81.676 L 60 91.852 60 97.376 C 60 101.075, 60.464 103.165, 61.405 103.700 C 62.178 104.140, 69.786 111.214, 78.311 119.420 L 93.812 134.339 99.589 134.420 L 105.367 134.500 116.933 123.364 C 123.295 117.239, 130.977 109.960, 134.004 107.189 C 139.292 102.350, 139.506 101.957, 139.437 97.208 L 139.365 92.265 125.933 79.242 C 104.055 58.031, 105.694 59.269, 99.410 59.213 C 94.015 59.164, 93.822 59.264, 87.621 65.332 M 136.471 111.765 C 133.155 114.919, 126.034 121.628, 120.648 126.673 C 115.261 131.718, 110.884 136.189, 110.922 136.608 C 111.009 137.595, 130.182 138.162, 131.500 137.217 C 132.050 136.823, 133.186 135.161, 134.025 133.525 C 134.863 131.888, 136.888 129.863, 138.525 129.025 C 140.161 128.186, 141.828 127.050, 142.230 126.500 C 142.631 125.950, 142.856 121.113, 142.730 115.751 C 142.603 110.388, 142.500 106.008, 142.500 106.016 C 142.500 106.024, 139.787 108.611, 136.471 111.765 M 57.022 117.161 L 57.043 127.500 60.272 129 C 62.139 129.868, 64.343 132.107, 65.500 134.313 L 67.500 138.126 78.249 137.813 C 84.162 137.641, 88.992 137.275, 88.984 137 C 88.966 136.423, 65.100 113.624, 60.250 109.551 L 57 106.822 57.022 117.161" stroke="none" fill="#7e2220" fill-rule="evenodd"/></svg>